<svg width="100%" height="auto" viewBox="0 0 3369 1153" fill="none" xmlns="http://www.w3.org/2000/svg">
<g clip-path="url(#clip0_30_53)">
<path d="M2097.45 1160.63C2091.72 1154.9 2086.35 1149.44 2081.33 1144.25C2076.5 1139.06 2071.67 1133.95 2066.83 1128.94C2062 1123.93 2056.99 1118.82 2051.79 1113.63C2046.78 1108.44 2041.41 1102.98 2035.68 1097.25C2043.2 1075.05 2051.26 1052.67 2059.85 1030.11C2068.44 1007.73 2078.02 984.188 2088.58 959.481C2099.15 934.774 2110.96 908.546 2124.03 880.795C2137.1 853.044 2151.96 822.698 2168.61 789.755C2160.38 801.929 2152.68 812.582 2145.52 821.713C2138.54 830.844 2132.45 838.542 2127.26 844.809C2121.17 851.97 2115.44 858.236 2110.07 863.607C2096.46 876.677 2084.29 887.956 2073.55 897.445C2062.98 906.934 2053.49 914.722 2045.08 920.81C2036.84 927.076 2029.59 931.731 2023.33 934.774C2017.06 937.818 2011.51 939.34 2006.68 939.34C2002.92 939.34 1998.89 937.997 1994.59 935.312C1990.47 932.805 1986.36 929.582 1982.24 925.644C1978.3 921.884 1974.54 917.855 1970.96 913.559C1967.38 909.262 1964.24 905.412 1961.56 902.011C1957.08 896.282 1954.58 888.852 1954.04 879.721C1953.5 870.59 1953.23 859.311 1953.23 845.883C1953.23 825.294 1954.93 803.72 1958.34 781.161C1961.92 758.603 1966.93 735.954 1973.38 713.217C1979.82 690.3 1987.61 667.562 1996.74 645.004C2005.87 622.266 2016.08 600.513 2027.35 579.745C2038.63 558.798 2050.81 539.193 2063.88 520.932C2076.95 502.67 2090.64 486.288 2104.97 471.786C2108.73 475.725 2113.02 480.29 2117.86 485.482C2122.69 490.495 2127.53 495.688 2132.36 501.059C2137.37 506.43 2142.12 511.801 2146.59 517.172C2151.25 522.364 2155.19 526.929 2158.41 530.868C2143.19 544.654 2128.87 560.23 2115.44 577.597C2102.19 594.784 2090.02 613.225 2078.92 632.919C2067.82 652.434 2057.88 672.844 2049.11 694.149C2040.33 715.276 2032.9 736.76 2026.82 758.603C2020.91 780.266 2016.25 801.929 2012.85 823.593C2009.63 845.256 2007.93 866.203 2007.75 886.435C2027.62 876.409 2045.88 864.234 2062.54 849.911C2079.19 835.588 2094.4 820.012 2108.19 803.183C2122.15 786.174 2134.78 768.36 2146.06 749.74C2157.51 731.12 2167.81 712.322 2176.94 693.344C2186.25 674.366 2194.49 655.657 2201.65 637.216C2208.99 618.775 2215.61 601.409 2221.52 585.116C2227.43 568.824 2232.62 553.964 2237.1 540.536C2241.75 527.108 2245.96 515.919 2249.72 506.967C2251.51 509.652 2253.93 512.965 2256.97 516.903C2260.01 520.842 2263.24 525.139 2266.64 529.794C2270.22 534.27 2273.8 538.835 2277.38 543.49C2281.14 548.145 2284.54 552.532 2287.58 556.649C2290.81 560.588 2293.58 564.079 2295.91 567.123C2298.24 569.988 2299.76 571.957 2300.47 573.031C2290.99 595.59 2281.59 618.148 2272.28 640.707C2263.15 663.087 2253.75 686.809 2244.08 711.874C2234.41 736.76 2224.38 763.705 2214 792.709C2203.62 821.713 2192.43 854.208 2180.43 890.194C2168.61 926.181 2155.81 966.374 2142.03 1010.78C2128.42 1055.18 2113.56 1105.13 2097.45 1160.63ZM2306.38 863.607C2306.38 868.979 2308.35 871.664 2312.29 871.664C2316.41 871.664 2321.87 868.441 2328.67 861.996C2335.48 855.372 2342.55 847.047 2349.89 837.021C2349.53 835.051 2349.26 833.35 2349.08 831.918C2349.08 830.307 2349.08 828.874 2349.08 827.621C2349.08 824.04 2349.44 819.833 2350.16 814.999C2351.05 809.986 2353.11 804.346 2356.33 798.08C2358.48 793.246 2361.08 788.502 2364.12 783.847C2366.63 779.729 2369.67 775.342 2373.25 770.688C2376.83 765.854 2380.77 761.378 2385.07 757.26L2386.68 755.648C2388.47 757.797 2390.8 760.751 2393.66 764.511C2396.71 768.091 2399.66 771.851 2402.53 775.79C2405.57 779.55 2408.17 783.041 2410.31 786.264C2412.64 789.486 2414.07 791.724 2414.61 792.978C2414.61 800.676 2413.18 808.375 2410.31 816.073C2407.63 823.772 2403.96 831.381 2399.3 838.9C2410.04 838.184 2419.98 835.499 2429.11 830.844C2438.42 826.01 2448.09 818.222 2458.12 807.479C2459.73 809.091 2461.79 811.329 2464.29 814.193C2466.98 816.879 2469.13 819.206 2470.74 821.176C2463.22 829.053 2455.79 835.588 2448.45 840.78C2441.29 845.972 2434.04 850.09 2426.7 853.134C2419.53 856.177 2412.19 858.415 2404.67 859.848C2397.15 861.101 2389.46 861.728 2381.58 861.728C2375.49 868.173 2368.96 874.081 2361.97 879.452C2354.99 884.823 2347.83 889.478 2340.49 893.417C2333.33 897.356 2326.17 900.399 2319 902.548C2311.84 904.696 2305.04 905.771 2298.59 905.771C2293.22 905.771 2287.67 904.159 2281.94 900.937C2276.22 897.714 2271.02 893.775 2266.37 889.12C2261.71 884.286 2257.86 879.184 2254.82 873.812C2251.78 868.441 2250.25 863.697 2250.25 859.579C2250.25 845.972 2252.13 832.455 2255.89 819.027C2259.48 805.6 2265.2 793.067 2273.08 781.43C2280.78 769.613 2290.63 759.229 2302.62 750.277C2314.8 741.326 2329.21 734.522 2345.86 729.867C2346.4 729.509 2347.29 729.241 2348.55 729.062C2349.98 728.882 2351.14 728.793 2352.04 728.793C2354.54 728.793 2357.14 729.778 2359.83 731.747C2362.69 733.537 2365.29 735.596 2367.61 737.924C2370.12 740.251 2372.18 742.579 2373.79 744.906C2375.4 747.055 2376.21 748.487 2376.21 749.203C2375.85 750.098 2374.51 751.262 2372.18 752.694C2369.85 753.948 2366.72 756.186 2362.78 759.408C2358.84 762.631 2354.19 767.286 2348.81 773.373C2343.44 779.281 2337.54 787.159 2331.09 797.006C2321.42 811.508 2314.89 824.667 2311.49 836.483C2308.08 848.121 2306.38 857.162 2306.38 863.607ZM2477.45 910.873C2474.23 910.873 2470.56 909.799 2466.44 907.65C2462.32 905.681 2458.12 902.906 2453.82 899.325C2449.52 895.924 2445.4 891.895 2441.47 887.24C2437.35 882.406 2433.95 877.393 2431.26 872.201C2430.19 870.232 2429.47 867.994 2429.11 865.487C2428.75 862.981 2428.58 859.758 2428.58 855.819C2428.58 845.614 2430.19 835.409 2433.41 825.204C2436.45 814.82 2440.75 804.973 2446.3 795.663C2451.85 786.353 2458.56 777.67 2466.44 769.613C2474.14 761.378 2482.55 754.306 2491.69 748.397C2500.82 742.489 2510.57 737.834 2520.96 734.433C2531.34 731.031 2541.91 729.33 2552.65 729.33C2554.26 729.33 2556.41 730.225 2559.09 732.016C2561.96 733.627 2565 735.865 2568.22 738.729C2571.45 741.594 2574.67 744.817 2577.89 748.397C2581.29 751.978 2584.34 755.648 2587.02 759.408C2589.71 762.989 2591.86 766.57 2593.47 770.15C2595.26 773.552 2596.15 776.596 2596.15 779.281C2595.26 782.683 2592.48 786.443 2587.83 790.561C2583.17 794.499 2577.62 798.259 2571.18 801.84C2564.91 805.242 2558.29 808.106 2551.3 810.434C2544.32 812.761 2538.24 813.925 2533.04 813.925C2530 813.925 2528.48 813.03 2528.48 811.239C2528.48 809.27 2529.82 806.405 2532.51 802.646C2535.19 798.707 2538.15 794.499 2541.37 790.023C2544.77 785.368 2547.81 780.803 2550.5 776.327C2553.18 771.672 2554.53 767.733 2554.53 764.511C2554.53 762.899 2554.08 761.557 2553.18 760.482C2552.47 759.408 2551.39 758.871 2549.96 758.871C2546.02 758.871 2541.91 760.661 2537.61 764.242C2533.31 767.823 2529.01 772.567 2524.72 778.476C2520.42 784.384 2516.3 791.187 2512.36 798.886C2508.43 806.405 2504.93 814.193 2501.89 822.25C2499.03 830.307 2496.7 838.363 2494.91 846.42C2493.12 854.477 2492.22 861.817 2492.22 868.441C2492.22 872.38 2493.39 875.155 2495.71 876.767C2498.04 878.199 2501.62 878.915 2506.46 878.915C2518.45 878.915 2530 876.946 2541.1 873.007C2552.38 868.889 2563.12 863.697 2573.33 857.431C2583.71 850.985 2593.56 843.824 2602.87 835.946C2612.18 828.069 2620.95 820.191 2629.19 812.313C2631.15 814.641 2633.57 816.968 2636.44 819.296C2639.3 821.444 2641.45 823.324 2642.88 824.936C2631.78 836.573 2619.97 847.673 2607.43 858.236C2595.08 868.62 2582.01 877.751 2568.22 885.629C2554.44 893.327 2539.94 899.415 2524.72 903.891C2509.68 908.546 2493.92 910.873 2477.45 910.873ZM2780.11 868.441C2782.8 868.441 2786.38 867.278 2790.86 864.95C2795.33 862.623 2800.25 859.669 2805.63 856.088C2811.18 852.507 2816.82 848.568 2822.54 844.271C2828.27 839.796 2833.73 835.499 2838.93 831.381C2844.3 827.084 2849.04 823.235 2853.16 819.833C2857.28 816.252 2860.41 813.567 2862.56 811.776C2864.17 813.388 2866.05 815.447 2868.2 817.953C2870.53 820.46 2872.68 822.787 2874.64 824.936C2870.71 828.874 2865.78 833.619 2859.87 839.169C2853.97 844.54 2847.61 850.09 2840.81 855.819C2834 861.549 2826.93 867.188 2819.59 872.738C2812.25 878.288 2805.09 883.301 2798.11 887.777C2791.12 892.253 2784.59 895.834 2778.5 898.52C2772.41 901.205 2767.31 902.548 2763.19 902.548C2759.79 902.548 2755.76 901.653 2751.11 899.862C2746.63 898.251 2742.25 896.103 2737.95 893.417C2733.83 890.91 2730.25 888.135 2727.21 885.092C2724.34 881.869 2722.91 878.736 2722.91 875.692C2723.09 867.994 2724.52 859.042 2727.21 848.837C2729.89 838.632 2733.03 828.158 2736.61 817.416C2740.37 806.674 2744.31 796.111 2748.42 785.727C2752.72 775.163 2756.66 765.764 2760.24 757.528C2758.81 757.886 2756.03 759.856 2751.92 763.437C2747.8 767.017 2742.78 771.941 2736.88 778.207C2731.15 784.294 2724.79 791.724 2717.81 800.497C2711.01 809.091 2704.2 818.759 2697.4 829.501C2690.77 840.243 2684.42 851.881 2678.33 864.413C2672.24 876.767 2667.14 889.836 2663.02 903.622C2662.49 905.591 2661.68 907.024 2660.61 907.919C2659.71 908.814 2658.1 909.262 2655.77 909.262C2654.16 909.262 2651.65 908.456 2648.25 906.845C2644.85 905.233 2641.27 903.264 2637.51 900.937C2633.75 898.788 2630.08 896.461 2626.5 893.954C2622.92 891.448 2620.05 889.21 2617.91 887.24C2616.83 885.987 2615.94 884.823 2615.22 883.749C2614.5 882.675 2614.15 881.063 2614.15 878.915C2614.15 867.099 2616.12 852.597 2620.05 835.409C2623.99 818.222 2629.45 799.602 2636.44 779.55C2643.24 759.319 2651.21 738.282 2660.34 716.439C2669.65 694.418 2679.49 672.844 2689.88 651.718C2700.44 630.591 2711.36 610.539 2722.64 591.562C2734.1 572.405 2745.29 555.575 2756.21 541.073C2767.31 526.392 2777.88 514.665 2787.9 505.893C2798.11 496.941 2807.42 492.196 2815.83 491.659C2819.95 492.912 2824.07 494.882 2828.18 497.567C2832.48 500.253 2836.51 503.207 2840.27 506.43C2844.03 509.652 2847.34 512.785 2850.21 515.829C2853.25 518.873 2855.58 521.469 2857.19 523.617C2858.26 525.049 2858.98 526.75 2859.34 528.72C2859.69 530.689 2859.87 532.121 2859.87 533.017C2859.87 539.462 2858.08 547.429 2854.5 556.918C2850.92 566.407 2845.91 577.06 2839.46 588.876C2833.02 600.692 2825.14 613.404 2815.83 627.011C2806.7 640.438 2796.5 654.314 2785.22 668.637C2774.12 682.781 2762.03 697.104 2748.96 711.605C2736.07 726.107 2722.55 740.162 2708.41 753.769C2704.83 763.437 2701.61 772.836 2698.74 781.967C2708.41 771.941 2717.27 763.526 2725.33 756.723C2733.38 749.919 2740.55 744.548 2746.81 740.609C2753.08 736.492 2758.36 733.627 2762.66 732.016C2767.13 730.225 2770.53 729.33 2772.86 729.33C2774.47 729.33 2777.34 730.404 2781.46 732.553C2785.57 734.522 2789.87 736.939 2794.35 739.804C2798.82 742.668 2802.94 745.622 2806.7 748.666C2810.46 751.71 2812.79 754.216 2813.68 756.186C2814.04 757.081 2814.04 758.334 2813.68 759.945C2813.32 761.378 2812.97 762.541 2812.61 763.437C2811 768.271 2809.03 773.91 2806.7 780.355C2804.55 786.622 2802.13 793.336 2799.45 800.497C2796.94 807.479 2794.44 814.551 2791.93 821.713C2789.42 828.874 2787.19 835.499 2785.22 841.586C2783.25 847.494 2781.64 852.776 2780.38 857.431C2779.13 861.907 2778.5 865.04 2778.5 866.83C2778.5 867.904 2779.04 868.441 2780.11 868.441ZM2756.48 637.484C2752.18 646.615 2747.98 655.746 2743.86 664.877C2739.92 673.829 2736.07 682.87 2732.31 692.001C2744.31 676.604 2755.94 661.028 2767.22 645.272C2778.5 629.338 2788.53 614.12 2797.3 599.618C2806.25 584.937 2813.41 571.42 2818.79 559.066C2824.16 546.713 2826.84 536.329 2826.84 527.914C2826.84 523.975 2826.13 522.006 2824.69 522.006C2822.54 522.006 2819.23 524.96 2814.76 530.868C2810.46 536.597 2805.27 544.564 2799.18 554.77C2793.09 564.975 2786.38 577.149 2779.04 591.293C2771.88 605.437 2764.36 620.834 2756.48 637.484ZM2878.94 905.771C2876.26 905.771 2872.85 904.786 2868.74 902.816C2864.62 901.026 2860.68 898.699 2856.92 895.834C2853.16 893.148 2849.94 890.105 2847.25 886.703C2844.57 883.301 2843.22 879.989 2843.22 876.767C2845.01 868.889 2847.43 859.848 2850.47 849.643C2853.52 839.438 2856.83 829.053 2860.41 818.49C2863.81 807.927 2867.48 797.632 2871.42 787.606C2875.18 777.401 2878.58 768.36 2881.63 760.482C2884.85 752.605 2887.62 746.249 2889.95 741.415C2892.28 736.581 2893.8 734.164 2894.52 734.164C2895.59 734.164 2898.28 735.328 2902.57 737.655C2906.87 739.983 2911.35 742.847 2916 746.249C2920.84 749.472 2925.13 752.963 2928.89 756.723C2932.65 760.303 2934.53 763.437 2934.53 766.122C2934.53 766.659 2934.44 767.375 2934.26 768.271C2934.08 768.987 2933.82 769.971 2933.46 771.225C2932.03 775.701 2930.15 780.982 2927.82 787.069C2925.67 793.157 2923.34 799.512 2920.84 806.137C2918.33 812.582 2915.82 819.117 2913.32 825.741C2910.81 832.187 2908.57 838.274 2906.6 844.003C2904.63 849.732 2903.02 854.745 2901.77 859.042C2900.52 863.339 2899.89 866.472 2899.89 868.441C2899.89 869.516 2900.43 870.053 2901.5 870.053C2903.47 870.053 2906.42 868.889 2910.36 866.562C2914.3 864.234 2918.78 861.19 2923.79 857.431C2928.98 853.671 2934.35 849.553 2939.9 845.077C2945.45 840.601 2950.74 836.215 2955.75 831.918C2960.94 827.442 2965.6 823.414 2969.71 819.833C2973.83 816.252 2976.96 813.567 2979.11 811.776C2980.72 813.388 2982.6 815.447 2984.75 817.953C2987.08 820.46 2989.23 822.787 2991.2 824.936C2987.26 828.874 2982.33 833.708 2976.43 839.438C2970.52 844.988 2964.07 850.717 2957.09 856.625C2950.29 862.533 2943.13 868.441 2935.61 874.35C2928.27 880.258 2921.1 885.539 2914.12 890.194C2907.14 894.849 2900.6 898.609 2894.52 901.474C2888.43 904.338 2883.24 905.771 2878.94 905.771ZM2985.29 652.255C2985.11 652.971 2984.39 654.761 2983.14 657.626C2982.07 660.312 2980.72 663.534 2979.11 667.294C2977.5 670.875 2975.62 674.724 2973.47 678.842C2971.5 682.781 2969.53 686.451 2967.56 689.853C2965.6 693.254 2963.72 696.119 2961.92 698.446C2960.13 700.595 2958.7 701.669 2957.63 701.669C2954.41 701.49 2950.47 700.505 2945.81 698.715C2941.34 696.924 2936.95 694.955 2932.65 692.807C2928.53 690.479 2924.95 688.241 2921.91 686.093C2919.05 683.944 2917.61 682.423 2917.61 681.527C2917.61 677.768 2918.69 672.934 2920.84 667.025C2922.98 660.938 2925.49 655.119 2928.36 649.569C2931.22 643.84 2934.08 638.917 2936.95 634.799C2939.99 630.681 2942.32 628.622 2943.93 628.622C2947.15 628.622 2951.09 629.696 2955.75 631.845C2960.4 633.814 2964.88 636.142 2969.18 638.827C2973.65 641.513 2977.41 644.198 2980.46 646.884C2983.68 649.39 2985.29 651.181 2985.29 652.255Z" fill="url(#paint0_linear_30_53)" style="mix-blend-mode:darken"/>
<path d="M666.475 531.942C666.654 532.3 667.012 533.196 667.549 534.628C668.086 535.881 668.623 537.403 669.16 539.193C669.697 540.805 670.145 542.506 670.503 544.296C671.04 545.907 671.309 547.071 671.309 547.787C671.309 553.874 670.055 561.215 667.549 569.809C665.042 578.223 661.551 587.175 657.075 596.664C652.778 606.153 647.676 615.821 641.768 625.668C635.859 635.515 629.593 644.914 622.969 653.866C616.344 662.639 609.451 670.696 602.29 678.036C595.308 685.198 588.415 690.927 581.611 695.224C579.105 692.896 576.061 690.121 572.48 686.898C569.079 683.676 565.409 680.274 561.47 676.693C557.531 672.934 553.592 669.174 549.653 665.414C545.715 661.654 542.044 657.984 538.643 654.403C543.835 650.285 549.653 644.914 556.099 638.29C562.723 631.487 569.347 623.967 575.972 615.731C582.775 607.496 589.399 598.992 595.845 590.219C602.29 581.446 607.84 573.031 612.495 564.975C617.329 556.739 621.089 549.309 623.774 542.685C626.46 536.06 627.445 530.779 626.729 526.84C626.191 524.87 625.296 523.528 624.043 522.812C622.969 521.916 620.91 521.469 617.866 521.469C606.945 521.469 594.323 523.617 580 527.914C565.677 532.211 550.728 538.477 535.151 546.713C519.575 554.77 503.82 564.706 487.886 576.522C472.131 588.339 457.271 601.677 443.306 616.537C429.52 631.397 417.166 647.689 406.245 665.414C395.503 683.139 387.267 702.027 381.538 722.079C394.071 721.9 405.977 721.452 417.256 720.736C428.535 719.841 439.277 718.946 449.482 718.051C459.688 717.156 469.445 716.35 478.755 715.634C488.065 714.918 497.106 714.56 505.879 714.56C510.534 714.56 515.547 717.066 520.918 722.079C526.289 727.092 531.302 733.09 535.957 740.072C540.612 747.055 544.461 754.216 547.505 761.557C550.549 768.897 552.07 774.805 552.07 779.281C552.07 791.993 548.758 804.794 542.134 817.685C535.688 830.396 526.916 842.75 515.815 854.745C504.894 866.562 492.183 877.662 477.681 888.046C463.179 898.251 447.871 907.113 431.758 914.633C415.824 922.331 399.531 928.329 382.881 932.626C366.23 937.102 350.386 939.34 335.347 939.34C333.377 937.729 330.781 935.222 327.559 931.82C324.336 928.598 320.845 924.927 317.085 920.81C313.504 916.871 309.744 912.663 305.806 908.188C302.046 903.712 298.555 899.415 295.332 895.297C291.93 891.179 288.976 887.419 286.47 884.018C283.963 880.616 282.262 878.02 281.367 876.229C291.214 877.662 303.031 878.02 316.816 877.304C330.781 876.588 345.462 874.618 360.859 871.396C376.257 868.173 391.743 863.607 407.319 857.699C423.075 851.612 437.756 844.003 451.362 834.872C464.969 825.741 476.965 814.91 487.349 802.377C497.733 789.665 505.252 774.984 509.907 758.334C499.523 758.513 490.124 759.05 481.709 759.945C473.294 760.661 465.148 761.557 457.271 762.631C449.393 763.526 441.336 764.332 433.101 765.048C424.865 765.764 415.734 766.122 405.708 766.122C402.485 766.122 398.994 766.122 395.234 766.122C391.475 765.943 387.715 765.674 383.955 765.316C380.195 764.779 376.615 763.974 373.213 762.899C369.811 761.825 367.036 760.303 364.888 758.334C360.054 754.216 355.399 749.919 350.923 745.443C346.447 740.788 342.419 736.133 338.838 731.479C335.257 726.645 332.393 721.811 330.244 716.977C328.096 712.143 327.021 707.488 327.021 703.012C327.021 689.405 330.423 674.276 337.227 657.626C344.03 640.797 353.429 623.878 365.425 606.869C377.599 589.861 391.922 573.389 408.394 557.455C424.865 541.342 442.769 527.019 462.104 514.486C481.619 501.954 502.119 491.928 523.604 484.408C545.088 476.889 566.841 473.129 588.862 473.129C596.561 473.129 603.543 474.293 609.81 476.62C616.255 478.948 622.074 481.991 627.266 485.751C632.458 489.511 637.113 493.718 641.23 498.373C645.348 502.849 649.019 507.235 652.241 511.532C655.464 515.829 658.239 519.857 660.566 523.617C662.894 527.198 664.863 529.973 666.475 531.942ZM634.785 863.607C634.785 868.979 636.755 871.664 640.693 871.664C644.811 871.664 650.272 868.441 657.075 861.996C663.879 855.372 670.951 847.047 678.291 837.021C677.933 835.051 677.664 833.35 677.485 831.918C677.485 830.307 677.485 828.874 677.485 827.621C677.485 824.04 677.843 819.833 678.56 814.999C679.455 809.986 681.514 804.346 684.736 798.08C686.885 793.246 689.481 788.502 692.524 783.847C695.031 779.729 698.075 775.342 701.655 770.688C705.236 765.854 709.175 761.378 713.472 757.26L715.083 755.648C716.873 757.797 719.201 760.751 722.065 764.511C725.109 768.091 728.063 771.851 730.928 775.79C733.971 779.55 736.567 783.041 738.716 786.264C741.043 789.486 742.476 791.724 743.013 792.978C743.013 800.676 741.58 808.375 738.716 816.073C736.03 823.772 732.36 831.381 727.705 838.9C738.447 838.184 748.384 835.499 757.515 830.844C766.825 826.01 776.493 818.222 786.519 807.479C788.13 809.091 790.189 811.329 792.695 814.193C795.381 816.879 797.529 819.206 799.141 821.176C791.621 829.053 784.191 835.588 776.851 840.78C769.689 845.972 762.438 850.09 755.098 853.134C747.936 856.177 740.596 858.415 733.076 859.848C725.557 861.101 717.858 861.728 709.98 861.728C703.893 868.173 697.358 874.081 690.376 879.452C683.394 884.823 676.232 889.478 668.892 893.417C661.73 897.356 654.569 900.399 647.407 902.548C640.246 904.696 633.442 905.771 626.997 905.771C621.626 905.771 616.076 904.159 610.347 900.937C604.618 897.714 599.425 893.775 594.771 889.12C590.116 884.286 586.266 879.184 583.223 873.812C580.179 868.441 578.657 863.697 578.657 859.579C578.657 845.972 580.537 832.455 584.297 819.027C587.878 805.6 593.607 793.067 601.484 781.43C609.183 769.613 619.03 759.229 631.025 750.277C643.2 741.326 657.612 734.522 674.263 729.867C674.8 729.509 675.695 729.241 676.948 729.062C678.381 728.882 679.544 728.793 680.439 728.793C682.946 728.793 685.542 729.778 688.228 731.747C691.092 733.537 693.688 735.596 696.016 737.924C698.522 740.251 700.581 742.579 702.192 744.906C703.804 747.055 704.609 748.487 704.609 749.203C704.251 750.098 702.909 751.262 700.581 752.694C698.254 753.948 695.12 756.186 691.182 759.408C687.243 762.631 682.588 767.286 677.217 773.373C671.846 779.281 665.938 787.159 659.492 797.006C649.824 811.508 643.289 824.667 639.888 836.483C636.486 848.121 634.785 857.162 634.785 863.607ZM904.414 779.818C902.087 786.801 899.132 794.768 895.552 803.72C892.15 812.672 888.838 821.444 885.615 830.038C882.393 838.632 879.618 846.42 877.29 853.402C875.142 860.385 874.067 865.398 874.067 868.441C874.067 869.516 874.604 870.053 875.679 870.053C877.648 870.053 880.602 868.889 884.541 866.562C888.48 864.234 892.956 861.19 897.969 857.431C903.161 853.671 908.532 849.553 914.082 845.077C919.632 840.601 924.914 836.215 929.927 831.918C935.119 827.442 939.774 823.414 943.892 819.833C948.009 816.252 951.143 813.567 953.291 811.776C954.902 813.388 956.782 815.447 958.931 817.953C961.258 820.46 963.407 822.787 965.376 824.936C961.437 828.874 956.514 833.708 950.605 839.438C944.697 844.988 938.252 850.717 931.27 856.625C924.466 862.533 917.305 868.441 909.785 874.35C902.445 880.258 895.194 885.539 888.032 890.194C881.05 894.849 874.515 898.609 868.428 901.474C862.34 904.338 857.238 905.771 853.12 905.771C850.435 905.771 847.033 904.786 842.915 902.816C838.797 901.026 834.858 898.699 831.099 895.834C827.339 893.148 824.116 890.105 821.431 886.703C818.745 883.301 817.402 879.989 817.402 876.767C820.088 864.771 822.773 854.298 825.459 845.346C828.145 836.394 830.651 828.785 832.979 822.519C835.306 816.073 837.365 810.881 839.155 806.942C840.946 803.004 842.288 800.049 843.184 798.08C841.035 797.185 838.976 796.2 837.007 795.126C835.037 794.052 833.068 792.978 831.099 791.903C828.234 794.947 825.011 798.17 821.431 801.571C818.029 804.973 814.538 808.375 810.957 811.776C807.376 815.178 803.796 818.49 800.215 821.713C796.634 824.936 793.411 827.89 790.547 830.575L777.656 817.416C782.311 812.94 787.951 807.569 794.575 801.303C801.021 794.857 807.376 788.412 813.643 781.967C809.167 779.281 805.138 776.775 801.558 774.447C797.977 771.941 794.933 769.703 792.427 767.733C789.383 765.585 786.698 763.616 784.37 761.825C783.296 761.288 782.759 760.124 782.759 758.334C782.759 756.365 783.564 753.59 785.176 750.009C786.608 746.249 788.488 742.31 790.815 738.192C793.143 733.896 795.649 729.599 798.335 725.302C801.021 720.826 803.617 716.798 806.123 713.217C808.63 709.636 810.778 706.771 812.568 704.623C814.538 702.296 815.791 701.132 816.328 701.132C816.686 701.132 817.85 701.579 819.819 702.475C821.968 703.37 824.206 704.444 826.533 705.697C828.861 706.771 831.009 708.025 832.979 709.457C834.948 710.889 836.201 712.143 836.738 713.217C836.917 714.112 837.096 715.992 837.275 718.856C837.454 721.721 837.633 725.212 837.812 729.33C844.795 732.911 851.956 737.029 859.297 741.684C866.637 746.16 873.351 750.456 879.438 754.574C886.6 759.229 893.403 763.974 899.849 768.808C902.176 770.24 903.608 772.03 904.146 774.179C904.862 776.327 904.951 778.207 904.414 779.818ZM1077.36 861.728C1075.93 861.728 1074.59 861.728 1073.33 861.728C1072.26 861.728 1071.1 861.549 1069.84 861.19C1063.94 867.457 1057.58 873.365 1050.78 878.915C1044.15 884.286 1037.44 888.941 1030.63 892.88C1023.83 896.998 1017.12 900.131 1010.49 902.279C1004.05 904.607 997.871 905.771 991.963 905.771C986.413 905.771 980.594 903.801 974.507 899.862C968.599 895.924 963.138 891.269 958.125 885.897C953.112 880.347 948.994 874.708 945.771 868.979C942.549 863.249 940.938 858.684 940.938 855.282C940.938 846.868 941.922 835.588 943.892 821.444C945.861 807.121 949.352 790.919 954.365 772.836C959.378 754.574 966.182 734.88 974.775 713.754C983.548 692.628 994.648 671.054 1008.08 649.032C1025.8 620.028 1042.81 596.396 1059.1 578.134C1075.57 559.872 1090.52 545.549 1103.95 535.165C1117.56 524.602 1129.46 517.172 1139.67 512.875C1149.87 508.399 1157.66 505.535 1163.03 504.281C1166.97 504.281 1171.27 505.355 1175.92 507.504C1180.76 509.473 1185.32 512.248 1189.62 515.829C1194.1 519.231 1198.12 523.17 1201.7 527.646C1205.28 531.942 1207.79 536.418 1209.22 541.073C1207.08 553.606 1202.87 566.317 1196.6 579.208C1190.51 591.92 1182.91 604.81 1173.77 617.88C1164.82 630.771 1154.53 643.84 1142.89 657.089C1131.25 670.338 1118.72 683.676 1105.29 697.104C1091.87 710.352 1077.81 723.601 1063.13 736.85C1048.63 750.098 1033.86 763.347 1018.82 776.596C1016.13 785.548 1013.72 794.141 1011.57 802.377C1009.42 810.613 1007.54 818.222 1005.93 825.204C1004.5 832.187 1003.33 838.363 1002.44 843.734C1001.72 848.926 1001.36 853.134 1001.36 856.356C1001.36 861.369 1001.72 864.771 1002.44 866.562C1003.15 868.173 1004.67 868.979 1007 868.979C1009.33 868.979 1012.01 868.083 1015.06 866.293C1018.28 864.324 1021.59 861.728 1025 858.505C1028.4 855.282 1031.89 851.612 1035.47 847.494C1039.05 843.197 1042.45 838.721 1045.67 834.066C1045.49 832.813 1045.41 831.649 1045.41 830.575C1045.41 829.501 1045.41 828.516 1045.41 827.621C1045.41 820.818 1046.48 814.104 1048.63 807.479C1050.78 800.855 1053.55 794.589 1056.95 788.681C1060.35 782.772 1064.11 777.222 1068.23 772.03C1072.53 766.838 1076.83 762.183 1081.12 758.065C1083.27 759.677 1085.42 761.825 1087.57 764.511C1089.9 767.196 1092.13 770.329 1094.28 773.91C1096.61 777.312 1098.76 780.893 1100.73 784.652C1102.88 788.412 1104.93 792.172 1106.9 795.932C1106.01 802.735 1103.86 809.807 1100.46 817.147C1097.24 824.488 1093.03 831.828 1087.84 839.169H1088.91C1095 839.169 1100.82 838.721 1106.37 837.826C1111.92 836.752 1117.29 835.051 1122.48 832.724C1127.85 830.217 1133.13 826.994 1138.33 823.056C1143.52 818.938 1148.8 813.925 1154.17 808.017C1155.96 809.628 1158.11 811.866 1160.62 814.73C1163.12 817.416 1165.27 819.743 1167.06 821.713C1159.54 829.59 1152.11 836.125 1144.77 841.317C1137.43 846.33 1130.09 850.359 1122.75 853.402C1115.41 856.446 1107.98 858.594 1100.46 859.848C1093.12 861.101 1085.42 861.728 1077.36 861.728ZM1062.86 664.34C1058.21 672.934 1053.64 682.333 1049.17 692.538C1044.69 702.743 1040.39 713.485 1036.27 724.765C1055.79 705.787 1073.96 687.077 1090.79 668.637C1107.62 650.017 1122.12 632.65 1134.3 616.537C1146.47 600.424 1156.05 585.922 1163.03 573.031C1170.01 559.962 1173.51 549.309 1173.51 541.073C1173.51 538.567 1172.61 537.313 1170.82 537.313C1168.13 537.313 1163.57 539.283 1157.12 543.222C1150.68 546.981 1142.71 553.695 1133.22 563.363C1123.91 572.852 1113.26 585.832 1101.26 602.304C1089.45 618.596 1076.65 639.275 1062.86 664.34ZM1337.06 824.936C1320.58 841.049 1305.01 854.566 1290.33 865.487C1275.83 876.409 1261.95 885.181 1248.7 891.806C1235.45 898.43 1222.74 903.174 1210.57 906.039C1198.57 908.904 1186.84 910.336 1175.39 910.336C1170.55 910.336 1165.18 908.546 1159.27 904.965C1153.36 901.384 1147.9 896.998 1142.89 891.806C1137.7 886.793 1133.4 881.511 1130 875.961C1126.6 870.411 1124.9 865.666 1124.9 861.728C1124.9 847.047 1126.96 833.619 1131.07 821.444C1135.01 809.091 1140.29 797.991 1146.92 788.144C1153.54 778.297 1161.06 769.613 1169.48 762.094C1178.07 754.574 1186.93 748.308 1196.06 743.295C1205.37 738.282 1214.59 734.522 1223.73 732.016C1232.86 729.509 1241.27 728.256 1248.97 728.256C1254.52 728.256 1259.98 729.867 1265.35 733.09C1270.9 736.312 1275.91 740.251 1280.39 744.906C1284.87 749.561 1288.45 754.485 1291.13 759.677C1294 764.69 1295.43 769.076 1295.43 772.836C1295.43 778.923 1292.83 785.189 1287.64 791.635C1282.63 797.901 1275.47 804.346 1266.16 810.971C1256.85 817.595 1245.66 824.398 1232.59 831.381C1219.52 838.184 1205.11 845.077 1189.35 852.06C1188.81 856.356 1188.54 860.564 1188.54 864.682C1188.54 870.232 1189.71 873.992 1192.04 875.961C1194.54 877.93 1199.11 878.915 1205.73 878.915C1217.55 878.915 1228.65 876.946 1239.03 873.007C1249.6 869.068 1259.71 863.965 1269.38 857.699C1279.05 851.433 1288.36 844.271 1297.31 836.215C1306.26 828.158 1315.12 820.012 1323.9 811.776L1337.06 824.936ZM1242.52 757.797C1238.94 757.797 1235 759.766 1230.71 763.705C1226.41 767.465 1222.11 772.478 1217.82 778.744C1213.52 785.01 1209.4 792.261 1205.46 800.497C1201.53 808.554 1198.12 816.968 1195.26 825.741C1201.88 821.444 1208.33 816.879 1214.59 812.045C1221.04 807.211 1226.77 802.198 1231.78 797.006C1236.8 791.635 1240.82 786.174 1243.87 780.624C1246.91 775.074 1248.43 769.524 1248.43 763.974C1248.43 762.362 1247.9 760.93 1246.82 759.677C1245.93 758.424 1244.49 757.797 1242.52 757.797ZM1350.48 905.771C1347.44 905.771 1343.41 904.338 1338.4 901.474C1333.56 898.788 1328.82 895.386 1324.17 891.269C1319.51 887.33 1315.48 883.212 1312.08 878.915C1308.68 874.618 1306.98 870.948 1306.98 867.904C1306.98 862.533 1308.5 854.029 1311.54 842.392C1314.41 830.754 1318.26 817.506 1323.09 802.646C1327.92 787.606 1333.39 771.583 1339.47 754.574C1345.74 737.566 1352.01 720.915 1358.27 704.623H1320.41H1320.14C1319.96 704.623 1319.87 704.444 1319.87 704.086C1319.87 703.012 1320.32 701.49 1321.21 699.521C1321.93 697.372 1322.91 695.224 1324.17 693.075C1325.24 690.748 1326.58 688.689 1328.19 686.898C1329.63 684.929 1331.06 683.676 1332.49 683.139L1367.4 681.527C1372.42 669.353 1377.16 658.163 1381.64 647.958C1386.29 637.574 1390.41 628.712 1393.99 621.371C1394.88 619.402 1395.78 617.343 1396.67 615.194C1397.75 612.867 1399.18 610.629 1400.97 608.48C1402.94 606.153 1405.45 603.826 1408.49 601.498C1411.71 598.992 1416.01 596.485 1421.38 593.979C1425.32 592.009 1430.07 589.861 1435.62 587.533C1441.34 585.206 1446.89 583.057 1452.27 581.088C1457.82 579.118 1462.83 577.507 1467.3 576.254C1471.78 574.822 1475 574.105 1476.97 574.105C1478.76 574.105 1479.66 574.464 1479.66 575.18V575.717C1479.66 575.896 1479.48 576.343 1479.12 577.06C1478.05 578.85 1476.08 582.789 1473.21 588.876C1470.35 594.784 1466.77 602.304 1462.47 611.435C1458.35 620.386 1453.7 630.681 1448.51 642.318C1443.49 653.777 1438.3 665.951 1432.93 678.842L1497.38 676.425C1499.17 676.425 1499.71 677.499 1498.99 679.647C1498.28 681.796 1496.94 684.302 1494.97 687.167C1493 690.032 1490.67 692.986 1487.98 696.029C1485.48 699.073 1483.33 701.4 1481.54 703.012C1481.18 703.37 1480.46 703.728 1479.39 704.086C1478.32 704.444 1476.97 704.623 1475.36 704.623H1422.19C1415.74 720.199 1409.57 735.954 1403.66 751.889C1397.75 767.823 1392.47 782.951 1387.81 797.274C1383.16 811.597 1379.4 824.757 1376.53 836.752C1373.85 848.747 1372.5 858.594 1372.5 866.293C1372.5 867.367 1373.04 867.904 1374.12 867.904C1376.09 867.904 1379.04 866.83 1382.98 864.682C1386.92 862.354 1391.3 859.4 1396.14 855.819C1401.15 852.239 1406.43 848.3 1411.98 844.003C1417.53 839.706 1422.81 835.499 1427.83 831.381C1432.84 827.084 1437.32 823.235 1441.25 819.833C1445.37 816.252 1448.51 813.567 1450.65 811.776C1452.27 813.388 1454.15 815.447 1456.29 817.953C1458.62 820.46 1460.77 822.787 1462.74 824.936C1458.8 828.874 1453.88 833.708 1447.97 839.438C1442.06 844.988 1435.62 850.717 1428.63 856.625C1421.83 862.533 1414.67 868.441 1407.15 874.35C1399.81 880.258 1392.56 885.539 1385.4 890.194C1378.41 894.849 1371.88 898.609 1365.79 901.474C1359.7 904.338 1354.6 905.771 1350.48 905.771ZM1636.76 824.936C1620.29 841.049 1604.72 854.566 1590.03 865.487C1575.53 876.409 1561.66 885.181 1548.41 891.806C1535.16 898.43 1522.45 903.174 1510.27 906.039C1498.28 908.904 1486.55 910.336 1475.09 910.336C1470.26 910.336 1464.89 908.546 1458.98 904.965C1453.07 901.384 1447.61 896.998 1442.6 891.806C1437.41 886.793 1433.11 881.511 1429.71 875.961C1426.31 870.411 1424.6 865.666 1424.6 861.728C1424.6 847.047 1426.66 833.619 1430.78 821.444C1434.72 809.091 1440 797.991 1446.63 788.144C1453.25 778.297 1460.77 769.613 1469.18 762.094C1477.78 754.574 1486.64 748.308 1495.77 743.295C1505.08 738.282 1514.3 734.522 1523.43 732.016C1532.56 729.509 1540.98 728.256 1548.68 728.256C1554.23 728.256 1559.69 729.867 1565.06 733.09C1570.61 736.312 1575.62 740.251 1580.1 744.906C1584.57 749.561 1588.15 754.485 1590.84 759.677C1593.7 764.69 1595.14 769.076 1595.14 772.836C1595.14 778.923 1592.54 785.189 1587.35 791.635C1582.34 797.901 1575.17 804.346 1565.86 810.971C1556.55 817.595 1545.36 824.398 1532.29 831.381C1519.23 838.184 1504.81 845.077 1489.06 852.06C1488.52 856.356 1488.25 860.564 1488.25 864.682C1488.25 870.232 1489.42 873.992 1491.74 875.961C1494.25 877.93 1498.82 878.915 1505.44 878.915C1517.26 878.915 1528.36 876.946 1538.74 873.007C1549.3 869.068 1559.42 863.965 1569.09 857.699C1578.75 851.433 1588.06 844.271 1597.02 836.215C1605.97 828.158 1614.83 820.012 1623.6 811.776L1636.76 824.936ZM1542.23 757.797C1538.65 757.797 1534.71 759.766 1530.42 763.705C1526.12 767.465 1521.82 772.478 1517.52 778.744C1513.23 785.01 1509.11 792.261 1505.17 800.497C1501.23 808.554 1497.83 816.968 1494.97 825.741C1501.59 821.444 1508.04 816.879 1514.3 812.045C1520.75 807.211 1526.48 802.198 1531.49 797.006C1536.5 791.635 1540.53 786.174 1543.57 780.624C1546.62 775.074 1548.14 769.524 1548.14 763.974C1548.14 762.362 1547.6 760.93 1546.53 759.677C1545.63 758.424 1544.2 757.797 1542.23 757.797ZM1618.77 816.879C1622.89 812.94 1627.63 808.464 1633 803.451C1638.19 798.438 1643.39 792.978 1648.58 787.069C1653.95 781.161 1658.87 774.805 1663.35 768.002C1668 761.199 1671.67 753.858 1674.36 745.98C1675.08 741.863 1676.15 737.566 1677.58 733.09C1679.19 728.435 1680.9 724.228 1682.69 720.468C1684.65 716.708 1686.53 713.575 1688.33 711.068C1690.12 708.562 1691.73 707.309 1693.16 707.309C1695.31 708.562 1698.53 710.979 1702.83 714.56C1707.12 717.961 1711.42 721.632 1715.72 725.57C1720.01 729.509 1723.77 733.179 1727 736.581C1730.4 739.804 1732.1 741.773 1732.1 742.489C1729.95 750.725 1728.88 758.155 1728.88 764.779C1729.06 771.404 1729.59 777.938 1730.49 784.384C1731.56 790.829 1732.64 797.722 1733.71 805.062C1734.96 812.224 1735.59 820.549 1735.59 830.038C1735.59 835.767 1734.61 842.392 1732.64 849.911C1730.85 857.252 1727.62 863.876 1722.97 869.784C1732.1 864.413 1741.14 858.415 1750.09 851.791C1759.04 844.988 1767.01 838.632 1773.99 832.724C1782.23 825.741 1790.11 818.759 1797.63 811.776L1809.71 824.936C1803.8 830.486 1797.36 836.394 1790.38 842.66C1783.57 848.926 1776.41 855.103 1768.89 861.19C1761.55 867.278 1754.03 873.096 1746.33 878.646C1738.63 884.197 1731.03 889.12 1723.51 893.417C1715.99 897.714 1708.74 901.116 1701.75 903.622C1694.77 906.129 1688.24 907.382 1682.15 907.382C1676.96 907.382 1671.23 906.129 1664.96 903.622C1658.69 901.116 1652.79 898.072 1647.24 894.491C1641.69 890.91 1636.85 887.151 1632.73 883.212C1628.62 879.273 1626.2 875.961 1625.48 873.275C1625.48 872.917 1625.84 872.201 1626.56 871.127C1627.27 869.874 1628.17 868.62 1629.24 867.367C1630.14 866.114 1631.12 865.04 1632.2 864.145C1633.09 863.07 1633.81 862.533 1634.35 862.533C1635.42 862.533 1637.57 863.339 1640.79 864.95C1644.01 866.562 1649.38 867.367 1656.9 867.367C1661.02 867.367 1664.51 866.293 1667.38 864.145C1670.42 861.996 1672.93 859.132 1674.9 855.551C1676.87 851.97 1678.3 847.852 1679.19 843.197C1680.09 838.542 1680.54 833.619 1680.54 828.427C1680.54 820.907 1680.18 813.656 1679.46 806.674C1678.75 799.512 1677.94 792.619 1677.05 785.995C1674 789.576 1670.51 793.336 1666.57 797.274C1662.63 801.213 1658.61 805.152 1654.49 809.091C1650.55 812.851 1646.52 816.61 1642.4 820.37C1638.46 823.951 1634.88 827.174 1631.66 830.038L1618.77 816.879Z" fill="url(#paint1_linear_30_53)" style="mix-blend-mode:darken"/>
<g clip-path="url(#clip1_30_53)">
<path d="M1667.98 144.525C1662.75 145.488 1652.01 149.202 1647.03 151.954C1642.32 154.43 1634.86 161.309 1633.02 164.886C1632.11 166.537 1630.93 166.537 1624.12 164.611C1612.99 161.447 1593.74 161.859 1581.43 165.299C1547.26 175.204 1524.08 205.746 1523.95 240.965C1523.95 248.807 1523.42 250.321 1519.63 255.411C1517.14 258.575 1513.08 265.316 1510.33 270.407C1507.32 276.322 1504.7 279.762 1503.26 279.762C1498.15 279.762 1478.25 291.731 1471.57 298.885C1459.52 311.679 1453.63 325.437 1455.2 337.131C1456.38 345.523 1460.31 355.153 1464.63 359.831C1466.73 362.032 1467.51 364.096 1466.99 365.334C1464.63 369.461 1453.76 384.182 1452.98 384.319C1452.45 384.319 1448.66 386.383 1444.47 388.997C1430.06 397.939 1418.15 412.66 1415.4 425.317C1411.73 441.276 1420.77 459.573 1437.66 470.442C1445.25 475.257 1447.74 476.22 1455.33 477.458C1458.35 478.008 1460.18 479.384 1461.88 482.686C1464.11 487.088 1464.11 487.364 1460.57 495.068C1456.91 503.185 1454.55 513.503 1454.55 521.207C1454.55 528.499 1458.35 539.505 1462.67 544.733C1469.21 552.575 1488.33 561.379 1500.77 562.205C1512.42 563.168 1535.08 560.829 1539.66 558.353C1543.72 556.152 1544.24 556.289 1555.11 560.141C1561.4 562.48 1568.86 564.956 1571.74 565.782C1579.07 567.708 1609.71 571.422 1625.95 572.11L1639.44 572.798L1648.6 581.878C1664.84 597.975 1682.26 609.806 1697.58 615.584C1702.94 617.51 1710.02 618.611 1721.01 619.161C1751.52 620.675 1767.5 612.558 1785.05 586.968C1791.2 577.888 1794.34 568.533 1796.31 552.437C1797.35 545.145 1798.66 539.78 1799.45 539.78C1805.34 539.78 1833.62 535.24 1839.52 533.452C1873.95 522.858 1895.04 512.265 1914.02 495.893C1929.47 482.686 1952.91 450.356 1964.7 426.28C1975.3 404.543 1976.35 399.315 1976.35 369.874C1976.35 339.195 1975.17 333.554 1965.09 311.817C1954.22 288.567 1947.15 278.936 1931.05 265.316C1910.36 247.707 1883.91 233.261 1858.5 225.694C1834.93 218.541 1826.68 217.302 1802.85 217.165C1784.39 217.165 1779.55 217.578 1769.59 220.329C1763.18 222.118 1755.71 224.731 1752.96 226.245C1750.21 227.621 1747.73 228.859 1747.33 228.859C1747.07 228.859 1746.16 225.557 1745.24 221.705C1743.54 213.175 1738.17 201.206 1734.63 197.767C1733.32 196.528 1732.14 193.777 1732.14 191.713C1732.14 186.348 1728.35 174.104 1725.07 168.463C1720.75 161.309 1711.85 153.33 1704.12 149.615C1694.17 144.938 1678.59 142.599 1667.98 144.525ZM1694.3 158.695C1702.68 163.235 1707.79 167.638 1711.72 173.828C1713.55 176.855 1715.12 179.469 1715.12 179.882C1715.12 180.157 1711.33 180.432 1706.61 180.432C1701.9 180.432 1696.14 180.982 1693.91 181.395C1685.01 183.459 1666.67 195.841 1666.67 199.693C1666.67 200.381 1665.63 201.894 1664.32 203.132C1662.22 205.196 1661.83 204.645 1658.82 196.391C1656.85 190.75 1653.19 184.697 1649.26 179.882L1642.71 172.315L1645.59 169.151C1649.39 165.024 1660.26 158.833 1667.85 156.494C1675.97 154.018 1687.23 154.981 1694.3 158.695ZM1626.08 175.342C1633.68 178.781 1641.53 187.724 1646.51 198.73C1651.35 209.185 1650.31 210.561 1642.19 204.783C1630.4 196.528 1623.07 194.052 1609.06 194.052C1594.92 193.914 1590.99 195.29 1580.38 204.095C1571.09 211.799 1565.33 221.705 1560.61 237.801C1556.94 250.183 1556.42 253.76 1555.9 273.571C1555.37 297.096 1556.81 309.065 1561.92 323.373C1565.06 332.316 1565.06 332.041 1562.05 332.041C1559.56 332.041 1552.75 336.993 1552.75 338.919C1552.75 339.47 1561.79 339.882 1572.79 339.745C1583.66 339.745 1596.62 340.158 1601.46 340.845L1610.11 341.946L1613.38 336.718C1617.31 330.252 1617.83 329.702 1636.69 311.267C1671.13 277.561 1705.96 253.485 1733.45 244.267C1758.73 235.875 1768.94 232.848 1779.55 230.922C1805.6 226.107 1832.45 229.822 1869.63 243.579C1886.79 249.908 1903.68 259.813 1915.86 270.682C1922.27 276.322 1934.45 293.932 1941.78 308.24C1955.4 334.792 1960.64 363.821 1956.58 391.198C1955.4 399.178 1953.7 406.607 1952.65 407.845C1951.6 408.945 1950.82 410.321 1950.82 410.871C1950.82 412.247 1937.99 439.762 1934.84 444.99C1920.18 469.616 1902.89 489.152 1883.51 503.047C1873.69 510.064 1857.06 516.392 1838.86 519.832C1833.1 520.932 1821.97 523.133 1813.98 524.647C1795.39 528.361 1766.45 528.636 1750.87 525.335C1728.22 520.657 1714.86 516.53 1702.42 510.752C1694.04 506.762 1671.65 491.766 1664.58 485.025L1660.52 481.31L1661.44 470.304C1662.35 459.573 1662.22 459.023 1657.77 449.255C1653.58 439.9 1649.78 435.498 1644.15 433.434C1641.27 432.333 1641.27 432.884 1643.63 437.836C1649.26 449.118 1650.57 474.844 1646.51 491.078C1644.28 500.021 1638.39 514.328 1633.81 521.482L1631.06 526.022H1634.99C1639.83 526.022 1649.78 518.181 1652.66 511.99C1653.97 508.963 1654.89 508.138 1655.28 509.513C1660.26 526.71 1671.65 551.199 1679.24 561.104C1686.71 570.735 1698.49 579.402 1708.44 582.841C1720.88 586.968 1743.14 585.18 1754.67 578.852C1762.52 574.587 1767.63 565.094 1770.38 549.823C1771.56 543.219 1772.34 541.293 1773.78 541.844C1774.7 542.256 1777.19 542.532 1779.28 542.532H1783.08L1781.25 548.31C1780.33 551.612 1778.76 557.252 1777.84 560.967C1776.01 568.396 1765.27 588.069 1760.69 592.334C1758.99 593.985 1753.88 597.149 1749.17 599.488C1741.18 603.478 1739.74 603.753 1726.25 603.753C1711.06 603.753 1700.98 601.276 1688.8 594.673C1680.95 590.545 1663.79 576.513 1654.23 566.47L1645.99 557.802L1628.57 557.115C1591.12 555.464 1559.56 547.759 1537.17 534.827C1514.13 521.482 1484.14 492.041 1474.45 473.056C1466.46 457.372 1463.71 445.953 1463.85 428.344C1463.98 400.141 1469.48 383.081 1483.36 367.81C1491.21 359.143 1505.88 348.55 1509.81 348.55C1514.91 348.55 1517.14 346.211 1516.61 341.396C1515.17 328.601 1515.04 321.722 1516.22 307.415C1517.27 294.07 1518.19 290.08 1521.98 281.138C1524.47 275.222 1526.57 269.581 1526.57 268.481C1526.57 267.242 1527.88 264.628 1529.45 262.565C1534.68 255.411 1536.91 249.358 1537.17 240.553C1537.3 235.875 1537.17 231.473 1536.65 230.785C1535.47 228.721 1541.49 211.799 1546.08 204.37C1555.5 188.962 1575.8 175.067 1592.69 172.728C1605.13 170.939 1618.62 171.902 1626.08 175.342ZM1711.33 195.565C1716.04 197.491 1722.32 203.407 1725.47 208.773C1728.74 214.276 1734.11 235.738 1732.54 236.976C1732.01 237.526 1729.13 238.764 1726.25 239.727C1718.79 242.341 1708.31 247.569 1700.59 252.247C1692.73 257.199 1691.95 257.337 1691.95 253.072C1691.95 242.479 1685.14 234.362 1676.49 234.362C1671.65 234.362 1662.75 238.902 1662.75 241.378C1662.75 242.066 1662.22 242.616 1661.57 242.616C1659.47 242.616 1659.08 235.462 1660.91 231.748C1661.83 229.822 1664.06 224.731 1665.76 220.604C1669.69 211.387 1678.33 200.793 1685.14 197.079C1694.7 191.988 1701.77 191.576 1711.33 195.565ZM1622.15 211.111C1629.75 215.101 1635.64 219.641 1641.8 225.97C1650.18 234.774 1650.57 235.462 1653.97 248.119C1655.81 255.273 1657.9 265.454 1658.69 270.544L1660 279.899L1655.81 283.889C1653.45 286.228 1650.04 288.704 1648.08 289.667C1646.12 290.63 1644.28 292.144 1644.15 292.969C1643.89 293.795 1639.7 298.197 1634.59 302.874L1625.43 311.267L1623.46 301.361C1620.32 286.365 1614.69 275.91 1606.96 270.407C1599.76 265.454 1596.36 265.041 1589.94 268.205C1582.74 271.782 1578.55 282.376 1578.42 298.059C1578.29 309.341 1578.68 311.542 1581.95 318.008C1583.92 321.998 1586.67 326.4 1588.11 327.913C1590.6 330.527 1590.47 330.527 1584.84 330.252L1578.94 329.977L1575.8 319.659C1570.82 303.7 1569.25 288.704 1570.17 267.38C1571.35 242.204 1574.36 232.023 1584.44 218.678C1590.07 211.111 1592.17 209.323 1597.93 207.122C1605.52 204.37 1610.89 205.196 1622.15 211.111ZM1603.69 283.201C1606.44 291.456 1604.87 298.197 1599.76 300.536C1594 303.012 1591.51 300.948 1590.99 293.107C1590.73 289.667 1591.51 284.577 1592.56 281.825C1594.26 277.561 1595.18 276.873 1598.19 277.285C1601.2 277.561 1602.25 278.799 1603.69 283.201ZM1501.03 309.616C1501.03 317.87 1501.43 327.363 1501.95 330.94L1502.87 337.406L1496.06 340.845C1492.39 342.771 1487.55 345.523 1485.32 347.174C1483.22 348.687 1481 349.925 1480.61 349.925C1480.21 349.925 1478.64 347.587 1477.07 344.698C1474.58 339.882 1474.45 338.919 1476.02 331.078C1476.81 326.538 1479.69 319.246 1482.18 314.844C1486.37 307.552 1497.63 294.895 1499.99 294.895C1500.51 294.895 1501.03 301.499 1501.03 309.616ZM1445.78 406.607C1443.94 414.448 1444.99 439.212 1447.61 449.943C1449.05 455.446 1449.83 459.986 1449.57 459.986C1447.87 459.986 1434.51 446.779 1432.94 443.477C1429.01 435.36 1431.9 422.29 1440.54 408.808C1445.38 401.104 1447.35 400.416 1445.78 406.607ZM1487.94 513.09C1495.01 521.07 1505.48 531.525 1511.25 536.065C1521.2 544.182 1521.46 544.595 1517.92 545.008C1512.42 545.696 1495.27 542.669 1489.12 539.918C1479.69 535.515 1474.58 529.599 1472.88 520.932C1471.31 513.228 1472.09 498.507 1474.06 498.507C1474.58 498.507 1480.87 505.111 1487.94 513.09ZM1698.75 530.012C1721.54 541.706 1734.11 554.225 1735.68 567.295C1736.33 572.523 1736.33 572.523 1731.1 573.486C1717.22 575.962 1696.27 566.47 1686.45 553.125C1680.82 545.558 1670.08 522.858 1671.52 521.482C1672.83 519.969 1688.93 525.059 1698.75 530.012Z" fill="url(#paint2_linear_30_53)"/>
</g>
</g>
<defs>
<linearGradient id="paint0_linear_30_53" x1="2501.5" y1="354" x2="2501.5" y2="1176" gradientUnits="userSpaceOnUse">
<stop stop-color="#0057FF"/>
<stop offset="0.286458" stop-color="#0073FF"/>
<stop offset="1" stop-color="white" stop-opacity="0.9"/>
</linearGradient>
<linearGradient id="paint1_linear_30_53" x1="1122" y1="354" x2="1122" y2="1176" gradientUnits="userSpaceOnUse">
<stop stop-color="#0057FF"/>
<stop offset="0.286458" stop-color="#0073FF"/>
<stop offset="1" stop-color="white" stop-opacity="0.9"/>
</linearGradient>
<linearGradient id="paint2_linear_30_53" x1="1695.47" y1="619.336" x2="1695.47" y2="143.848" gradientUnits="userSpaceOnUse">
<stop stop-color="#AAF0FF"/>
<stop offset="1" stop-color="#075CFF"/>
</linearGradient>
<clipPath id="clip0_30_53">
<rect width="3369" height="1153" rx="576.5" fill="white"/>
</clipPath>
<clipPath id="clip1_30_53">
<rect width="584" height="681" fill="white" transform="translate(1392 84)"/>
</clipPath>
</defs>
</svg>
