<svg width="200" height="200" viewBox="0 0 1990 1990" fill="none" xmlns="http://www.w3.org/2000/svg">
<path d="M942.447 1675.63C936.718 1669.9 931.347 1664.44 926.334 1659.25C921.5 1654.06 916.666 1648.95 911.832 1643.94C906.998 1638.93 901.985 1633.82 896.793 1628.63C891.78 1623.44 886.409 1617.98 880.68 1612.25C888.199 1590.05 896.256 1567.67 904.85 1545.11C913.443 1522.73 923.022 1499.19 933.585 1474.48C944.148 1449.77 955.965 1423.55 969.034 1395.79C982.104 1368.04 996.964 1337.7 1013.61 1304.75C1005.38 1316.93 997.68 1327.58 990.519 1336.71C983.536 1345.84 977.449 1353.54 972.257 1359.81C966.17 1366.97 960.44 1373.24 955.069 1378.61C941.463 1391.68 929.288 1402.96 918.546 1412.45C907.983 1421.93 898.494 1429.72 890.079 1435.81C881.843 1442.08 874.592 1446.73 868.326 1449.77C862.06 1452.82 856.51 1454.34 851.676 1454.34C847.916 1454.34 843.888 1453 839.591 1450.31C835.473 1447.81 831.355 1444.58 827.237 1440.64C823.299 1436.88 819.539 1432.86 815.958 1428.56C812.377 1424.26 809.244 1420.41 806.559 1417.01C802.083 1411.28 799.576 1403.85 799.039 1394.72C798.502 1385.59 798.233 1374.31 798.233 1360.88C798.233 1340.29 799.934 1318.72 803.336 1296.16C806.917 1273.6 811.93 1250.95 818.375 1228.22C824.82 1205.3 832.608 1182.56 841.739 1160C850.87 1137.27 861.075 1115.51 872.354 1094.75C883.634 1073.8 895.808 1054.19 908.878 1035.93C921.948 1017.67 935.644 1001.29 949.967 986.786C953.727 990.725 958.023 995.29 962.857 1000.48C967.691 1005.5 972.525 1010.69 977.359 1016.06C982.372 1021.43 987.117 1026.8 991.593 1032.17C996.248 1037.36 1000.19 1041.93 1003.41 1045.87C988.191 1059.65 973.868 1075.23 960.44 1092.6C947.192 1109.78 935.017 1128.22 923.917 1147.92C912.817 1167.43 902.88 1187.84 894.107 1209.15C885.335 1230.28 877.905 1251.76 871.817 1273.6C865.909 1295.27 861.254 1316.93 857.853 1338.59C854.63 1360.26 852.929 1381.2 852.75 1401.43C872.623 1391.41 890.885 1379.23 907.535 1364.91C924.186 1350.59 939.404 1335.01 953.189 1318.18C967.154 1301.17 979.776 1283.36 991.056 1264.74C1002.51 1246.12 1012.81 1227.32 1021.94 1208.34C1031.25 1189.37 1039.49 1170.66 1046.65 1152.22C1053.99 1133.78 1060.61 1116.41 1066.52 1100.12C1072.43 1083.82 1077.62 1068.96 1082.1 1055.54C1086.75 1042.11 1090.96 1030.92 1094.72 1021.97C1096.51 1024.65 1098.93 1027.96 1101.97 1031.9C1105.01 1035.84 1108.24 1040.14 1111.64 1044.79C1115.22 1049.27 1118.8 1053.84 1122.38 1058.49C1126.14 1063.15 1129.54 1067.53 1132.58 1071.65C1135.81 1075.59 1138.58 1079.08 1140.91 1082.12C1143.24 1084.99 1144.76 1086.96 1145.47 1088.03C1135.99 1110.59 1126.59 1133.15 1117.28 1155.71C1108.15 1178.09 1098.75 1201.81 1089.08 1226.87C1079.41 1251.76 1069.38 1278.71 1059 1307.71C1048.62 1336.71 1037.43 1369.21 1025.43 1405.19C1013.61 1441.18 1000.81 1481.37 987.027 1525.78C973.421 1570.18 958.561 1620.13 942.447 1675.63ZM1151.38 1378.61C1151.38 1383.98 1153.35 1386.66 1157.29 1386.66C1161.41 1386.66 1166.87 1383.44 1173.67 1377C1180.48 1370.37 1187.55 1362.05 1194.89 1352.02C1194.53 1350.05 1194.26 1348.35 1194.08 1346.92C1194.08 1345.31 1194.08 1343.87 1194.08 1342.62C1194.08 1339.04 1194.44 1334.83 1195.16 1330C1196.05 1324.99 1198.11 1319.35 1201.33 1313.08C1203.48 1308.25 1206.08 1303.5 1209.12 1298.85C1211.63 1294.73 1214.67 1290.34 1218.25 1285.69C1221.83 1280.85 1225.77 1276.38 1230.07 1272.26L1231.68 1270.65C1233.47 1272.8 1235.8 1275.75 1238.66 1279.51C1241.71 1283.09 1244.66 1286.85 1247.53 1290.79C1250.57 1294.55 1253.17 1298.04 1255.31 1301.26C1257.64 1304.49 1259.07 1306.72 1259.61 1307.98C1259.61 1315.68 1258.18 1323.37 1255.31 1331.07C1252.63 1338.77 1248.96 1346.38 1244.3 1353.9C1255.04 1353.18 1264.98 1350.5 1274.11 1345.84C1283.42 1341.01 1293.09 1333.22 1303.12 1322.48C1304.73 1324.09 1306.79 1326.33 1309.29 1329.19C1311.98 1331.88 1314.13 1334.21 1315.74 1336.18C1308.22 1344.05 1300.79 1350.59 1293.45 1355.78C1286.29 1360.97 1279.04 1365.09 1271.7 1368.13C1264.53 1371.18 1257.19 1373.42 1249.67 1374.85C1242.15 1376.1 1234.46 1376.73 1226.58 1376.73C1220.49 1383.17 1213.96 1389.08 1206.97 1394.45C1199.99 1399.82 1192.83 1404.48 1185.49 1408.42C1178.33 1412.36 1171.17 1415.4 1164 1417.55C1156.84 1419.7 1150.04 1420.77 1143.59 1420.77C1138.22 1420.77 1132.67 1419.16 1126.94 1415.94C1121.22 1412.71 1116.02 1408.78 1111.37 1404.12C1106.71 1399.29 1102.86 1394.18 1099.82 1388.81C1096.78 1383.44 1095.25 1378.7 1095.25 1374.58C1095.25 1360.97 1097.13 1347.46 1100.89 1334.03C1104.48 1320.6 1110.2 1308.07 1118.08 1296.43C1125.78 1284.61 1135.63 1274.23 1147.62 1265.28C1159.8 1256.33 1174.21 1249.52 1190.86 1244.87C1191.4 1244.51 1192.29 1244.24 1193.55 1244.06C1194.98 1243.88 1196.14 1243.79 1197.04 1243.79C1199.54 1243.79 1202.14 1244.78 1204.83 1246.75C1207.69 1248.54 1210.29 1250.6 1212.61 1252.92C1215.12 1255.25 1217.18 1257.58 1218.79 1259.91C1220.4 1262.05 1221.21 1263.49 1221.21 1264.2C1220.85 1265.1 1219.51 1266.26 1217.18 1267.69C1214.85 1268.95 1211.72 1271.19 1207.78 1274.41C1203.84 1277.63 1199.19 1282.29 1193.81 1288.37C1188.44 1294.28 1182.54 1302.16 1176.09 1312.01C1166.42 1326.51 1159.89 1339.67 1156.49 1351.48C1153.08 1363.12 1151.38 1372.16 1151.38 1378.61ZM1322.45 1425.87C1319.23 1425.87 1315.56 1424.8 1311.44 1422.65C1307.32 1420.68 1303.12 1417.91 1298.82 1414.33C1294.52 1410.92 1290.4 1406.9 1286.47 1402.24C1282.35 1397.41 1278.95 1392.39 1276.26 1387.2C1275.19 1385.23 1274.47 1382.99 1274.11 1380.49C1273.75 1377.98 1273.58 1374.76 1273.58 1370.82C1273.58 1360.61 1275.19 1350.41 1278.41 1340.2C1281.45 1329.82 1285.75 1319.97 1291.3 1310.66C1296.85 1301.35 1303.56 1292.67 1311.44 1284.61C1319.14 1276.38 1327.55 1269.31 1336.69 1263.4C1345.82 1257.49 1355.57 1252.83 1365.96 1249.43C1376.34 1246.03 1386.91 1244.33 1397.65 1244.33C1399.26 1244.33 1401.41 1245.23 1404.09 1247.02C1406.96 1248.63 1410 1250.86 1413.22 1253.73C1416.45 1256.59 1419.67 1259.82 1422.89 1263.4C1426.29 1266.98 1429.34 1270.65 1432.02 1274.41C1434.71 1277.99 1436.86 1281.57 1438.47 1285.15C1440.26 1288.55 1441.15 1291.6 1441.15 1294.28C1440.26 1297.68 1437.48 1301.44 1432.83 1305.56C1428.17 1309.5 1422.62 1313.26 1416.18 1316.84C1409.91 1320.24 1403.29 1323.11 1396.3 1325.43C1389.32 1327.76 1383.24 1328.92 1378.04 1328.92C1375 1328.92 1373.48 1328.03 1373.48 1326.24C1373.48 1324.27 1374.82 1321.41 1377.51 1317.65C1380.19 1313.71 1383.15 1309.5 1386.37 1305.02C1389.77 1300.37 1392.81 1295.8 1395.5 1291.33C1398.18 1286.67 1399.53 1282.73 1399.53 1279.51C1399.53 1277.9 1399.08 1276.56 1398.18 1275.48C1397.47 1274.41 1396.39 1273.87 1394.96 1273.87C1391.02 1273.87 1386.91 1275.66 1382.61 1279.24C1378.31 1282.82 1374.01 1287.57 1369.72 1293.48C1365.42 1299.38 1361.3 1306.19 1357.36 1313.89C1353.43 1321.41 1349.93 1329.19 1346.89 1337.25C1344.03 1345.31 1341.7 1353.36 1339.91 1361.42C1338.12 1369.48 1337.22 1376.82 1337.22 1383.44C1337.22 1387.38 1338.39 1390.16 1340.71 1391.77C1343.04 1393.2 1346.62 1393.92 1351.46 1393.92C1363.45 1393.92 1375 1391.95 1386.1 1388.01C1397.38 1383.89 1408.12 1378.7 1418.33 1372.43C1428.71 1365.99 1438.56 1358.82 1447.87 1350.95C1457.18 1343.07 1465.95 1335.19 1474.19 1327.31C1476.15 1329.64 1478.57 1331.97 1481.44 1334.3C1484.3 1336.44 1486.45 1338.32 1487.88 1339.94C1476.78 1351.57 1464.97 1362.67 1452.43 1373.24C1440.08 1383.62 1427.01 1392.75 1413.22 1400.63C1399.44 1408.33 1384.94 1414.41 1369.72 1418.89C1354.68 1423.55 1338.92 1425.87 1322.45 1425.87ZM1625.11 1383.44C1627.8 1383.44 1631.38 1382.28 1635.86 1379.95C1640.33 1377.62 1645.25 1374.67 1650.63 1371.09C1656.18 1367.51 1661.82 1363.57 1667.54 1359.27C1673.27 1354.8 1678.73 1350.5 1683.93 1346.38C1689.3 1342.08 1694.04 1338.23 1698.16 1334.83C1702.28 1331.25 1705.41 1328.57 1707.56 1326.78C1709.17 1328.39 1711.05 1330.45 1713.2 1332.95C1715.53 1335.46 1717.68 1337.79 1719.64 1339.94C1715.71 1343.87 1710.78 1348.62 1704.87 1354.17C1698.97 1359.54 1692.61 1365.09 1685.81 1370.82C1679 1376.55 1671.93 1382.19 1664.59 1387.74C1657.25 1393.29 1650.09 1398.3 1643.11 1402.78C1636.12 1407.25 1629.59 1410.83 1623.5 1413.52C1617.41 1416.21 1612.31 1417.55 1608.19 1417.55C1604.79 1417.55 1600.76 1416.65 1596.11 1414.86C1591.63 1413.25 1587.25 1411.1 1582.95 1408.42C1578.83 1405.91 1575.25 1403.14 1572.21 1400.09C1569.34 1396.87 1567.91 1393.74 1567.91 1390.69C1568.09 1382.99 1569.52 1374.04 1572.21 1363.84C1574.89 1353.63 1578.03 1343.16 1581.61 1332.42C1585.37 1321.67 1589.31 1311.11 1593.42 1300.73C1597.72 1290.16 1601.66 1280.76 1605.24 1272.53C1603.81 1272.89 1601.03 1274.86 1596.92 1278.44C1592.8 1282.02 1587.78 1286.94 1581.88 1293.21C1576.15 1299.29 1569.79 1306.72 1562.81 1315.5C1556.01 1324.09 1549.2 1333.76 1542.4 1344.5C1535.77 1355.24 1529.42 1366.88 1523.33 1379.41C1517.24 1391.77 1512.14 1404.84 1508.02 1418.62C1507.49 1420.59 1506.68 1422.02 1505.61 1422.92C1504.71 1423.81 1503.1 1424.26 1500.77 1424.26C1499.16 1424.26 1496.65 1423.46 1493.25 1421.84C1489.85 1420.23 1486.27 1418.26 1482.51 1415.94C1478.75 1413.79 1475.08 1411.46 1471.5 1408.95C1467.92 1406.45 1465.05 1404.21 1462.91 1402.24C1461.83 1400.99 1460.94 1399.82 1460.22 1398.75C1459.5 1397.67 1459.15 1396.06 1459.15 1393.92C1459.15 1382.1 1461.12 1367.6 1465.05 1350.41C1468.99 1333.22 1474.45 1314.6 1481.44 1294.55C1488.24 1274.32 1496.21 1253.28 1505.34 1231.44C1514.65 1209.42 1524.49 1187.84 1534.88 1166.72C1545.44 1145.59 1556.36 1125.54 1567.64 1106.56C1579.1 1087.4 1590.29 1070.58 1601.21 1056.07C1612.31 1041.39 1622.88 1029.67 1632.9 1020.89C1643.11 1011.94 1652.42 1007.2 1660.83 1006.66C1664.95 1007.91 1669.07 1009.88 1673.18 1012.57C1677.48 1015.25 1681.51 1018.21 1685.27 1021.43C1689.03 1024.65 1692.34 1027.79 1695.21 1030.83C1698.25 1033.87 1700.58 1036.47 1702.19 1038.62C1703.26 1040.05 1703.98 1041.75 1704.34 1043.72C1704.69 1045.69 1704.87 1047.12 1704.87 1048.02C1704.87 1054.46 1703.08 1062.43 1699.5 1071.92C1695.92 1081.41 1690.91 1092.06 1684.46 1103.88C1678.02 1115.69 1670.14 1128.4 1660.83 1142.01C1651.7 1155.44 1641.5 1169.31 1630.22 1183.64C1619.12 1197.78 1607.03 1212.1 1593.96 1226.61C1581.07 1241.11 1567.55 1255.16 1553.41 1268.77C1549.83 1278.44 1546.61 1287.84 1543.74 1296.97C1553.41 1286.94 1562.27 1278.53 1570.33 1271.72C1578.38 1264.92 1585.55 1259.55 1591.81 1255.61C1598.08 1251.49 1603.36 1248.63 1607.66 1247.02C1612.13 1245.23 1615.53 1244.33 1617.86 1244.33C1619.47 1244.33 1622.34 1245.4 1626.46 1247.55C1630.57 1249.52 1634.87 1251.94 1639.35 1254.8C1643.82 1257.67 1647.94 1260.62 1651.7 1263.67C1655.46 1266.71 1657.79 1269.22 1658.68 1271.19C1659.04 1272.08 1659.04 1273.33 1658.68 1274.95C1658.32 1276.38 1657.97 1277.54 1657.61 1278.44C1656 1283.27 1654.03 1288.91 1651.7 1295.36C1649.55 1301.62 1647.13 1308.34 1644.45 1315.5C1641.94 1322.48 1639.44 1329.55 1636.93 1336.71C1634.42 1343.87 1632.19 1350.5 1630.22 1356.59C1628.25 1362.49 1626.64 1367.78 1625.38 1372.43C1624.13 1376.91 1623.5 1380.04 1623.5 1381.83C1623.5 1382.9 1624.04 1383.44 1625.11 1383.44ZM1601.48 1152.48C1597.18 1161.62 1592.98 1170.75 1588.86 1179.88C1584.92 1188.83 1581.07 1197.87 1577.31 1207C1589.31 1191.6 1600.94 1176.03 1612.22 1160.27C1623.5 1144.34 1633.53 1129.12 1642.3 1114.62C1651.25 1099.94 1658.41 1086.42 1663.79 1074.07C1669.16 1061.71 1671.84 1051.33 1671.84 1042.91C1671.84 1038.98 1671.13 1037.01 1669.69 1037.01C1667.54 1037.01 1664.23 1039.96 1659.76 1045.87C1655.46 1051.6 1650.27 1059.56 1644.18 1069.77C1638.09 1079.97 1631.38 1092.15 1624.04 1106.29C1616.88 1120.44 1609.36 1135.83 1601.48 1152.48ZM1723.94 1420.77C1721.26 1420.77 1717.85 1419.79 1713.74 1417.82C1709.62 1416.03 1705.68 1413.7 1701.92 1410.83C1698.16 1408.15 1694.94 1405.1 1692.25 1401.7C1689.57 1398.3 1688.22 1394.99 1688.22 1391.77C1690.01 1383.89 1692.43 1374.85 1695.47 1364.64C1698.52 1354.44 1701.83 1344.05 1705.41 1333.49C1708.81 1322.93 1712.48 1312.63 1716.42 1302.61C1720.18 1292.4 1723.58 1283.36 1726.63 1275.48C1729.85 1267.6 1732.62 1261.25 1734.95 1256.42C1737.28 1251.58 1738.8 1249.16 1739.52 1249.16C1740.59 1249.16 1743.28 1250.33 1747.57 1252.66C1751.87 1254.98 1756.35 1257.85 1761 1261.25C1765.84 1264.47 1770.13 1267.96 1773.89 1271.72C1777.65 1275.3 1779.53 1278.44 1779.53 1281.12C1779.53 1281.66 1779.44 1282.38 1779.26 1283.27C1779.08 1283.99 1778.82 1284.97 1778.46 1286.22C1777.03 1290.7 1775.15 1295.98 1772.82 1302.07C1770.67 1308.16 1768.34 1314.51 1765.84 1321.14C1763.33 1327.58 1760.82 1334.12 1758.32 1340.74C1755.81 1347.19 1753.57 1353.27 1751.6 1359C1749.63 1364.73 1748.02 1369.75 1746.77 1374.04C1745.52 1378.34 1744.89 1381.47 1744.89 1383.44C1744.89 1384.52 1745.43 1385.05 1746.5 1385.05C1748.47 1385.05 1751.42 1383.89 1755.36 1381.56C1759.3 1379.23 1763.78 1376.19 1768.79 1372.43C1773.98 1368.67 1779.35 1364.55 1784.9 1360.08C1790.45 1355.6 1795.74 1351.21 1800.75 1346.92C1805.94 1342.44 1810.6 1338.41 1814.71 1334.83C1818.83 1331.25 1821.96 1328.57 1824.11 1326.78C1825.72 1328.39 1827.6 1330.45 1829.75 1332.95C1832.08 1335.46 1834.23 1337.79 1836.2 1339.94C1832.26 1343.87 1827.33 1348.71 1821.43 1354.44C1815.52 1359.99 1809.07 1365.72 1802.09 1371.62C1795.29 1377.53 1788.13 1383.44 1780.61 1389.35C1773.27 1395.26 1766.1 1400.54 1759.12 1405.19C1752.14 1409.85 1745.6 1413.61 1739.52 1416.47C1733.43 1419.34 1728.24 1420.77 1723.94 1420.77ZM1830.29 1167.25C1830.11 1167.97 1829.39 1169.76 1828.14 1172.63C1827.07 1175.31 1825.72 1178.53 1824.11 1182.29C1822.5 1185.87 1820.62 1189.72 1818.47 1193.84C1816.5 1197.78 1814.53 1201.45 1812.56 1204.85C1810.6 1208.25 1808.72 1211.12 1806.92 1213.45C1805.13 1215.59 1803.7 1216.67 1802.63 1216.67C1799.41 1216.49 1795.47 1215.51 1790.81 1213.71C1786.34 1211.92 1781.95 1209.96 1777.65 1207.81C1773.53 1205.48 1769.95 1203.24 1766.91 1201.09C1764.05 1198.94 1762.61 1197.42 1762.61 1196.53C1762.61 1192.77 1763.69 1187.93 1765.84 1182.03C1767.98 1175.94 1770.49 1170.12 1773.36 1164.57C1776.22 1158.84 1779.08 1153.92 1781.95 1149.8C1784.99 1145.68 1787.32 1143.62 1788.93 1143.62C1792.15 1143.62 1796.09 1144.7 1800.75 1146.84C1805.4 1148.81 1809.88 1151.14 1814.18 1153.83C1818.65 1156.51 1822.41 1159.2 1825.46 1161.88C1828.68 1164.39 1830.29 1166.18 1830.29 1167.25Z" fill="url(#paint0_linear_30_47)" style="mix-blend-mode:darken"/>
<path d="M470.475 405.942C470.654 406.3 471.012 407.196 471.549 408.628C472.086 409.881 472.623 411.403 473.16 413.193C473.697 414.805 474.145 416.506 474.503 418.296C475.04 419.907 475.309 421.071 475.309 421.787C475.309 427.874 474.055 435.215 471.549 443.809C469.042 452.223 465.551 461.175 461.075 470.664C456.778 480.153 451.676 489.821 445.768 499.668C439.859 509.515 433.593 518.914 426.969 527.866C420.344 536.639 413.451 544.696 406.29 552.036C399.308 559.198 392.415 564.927 385.611 569.224C383.105 566.896 380.061 564.121 376.48 560.898C373.079 557.676 369.409 554.274 365.47 550.693C361.531 546.934 357.592 543.174 353.653 539.414C349.715 535.654 346.044 531.984 342.643 528.403C347.835 524.285 353.653 518.914 360.099 512.29C366.723 505.487 373.347 497.967 379.972 489.731C386.775 481.496 393.399 472.992 399.845 464.219C406.29 455.446 411.84 447.031 416.495 438.975C421.329 430.739 425.089 423.309 427.774 416.685C430.46 410.06 431.445 404.779 430.729 400.84C430.191 398.87 429.296 397.528 428.043 396.812C426.969 395.916 424.91 395.469 421.866 395.469C410.945 395.469 398.323 397.617 384 401.914C369.677 406.211 354.728 412.477 339.151 420.713C323.575 428.77 307.82 438.706 291.886 450.522C276.131 462.339 261.271 475.677 247.306 490.537C233.52 505.397 221.166 521.689 210.245 539.414C199.503 557.139 191.267 576.027 185.538 596.079C198.071 595.9 209.977 595.452 221.256 594.736C232.535 593.841 243.277 592.946 253.482 592.051C263.688 591.156 273.445 590.35 282.755 589.634C292.065 588.918 301.106 588.56 309.879 588.56C314.534 588.56 319.547 591.066 324.918 596.079C330.289 601.092 335.302 607.09 339.957 614.072C344.612 621.055 348.461 628.216 351.505 635.557C354.549 642.897 356.07 648.805 356.07 653.281C356.07 665.993 352.758 678.794 346.134 691.685C339.688 704.396 330.916 716.75 319.815 728.745C308.894 740.562 296.183 751.662 281.681 762.046C267.179 772.251 251.871 781.113 235.758 788.633C219.824 796.331 203.531 802.329 186.881 806.626C170.23 811.102 154.386 813.34 139.347 813.34C137.377 811.729 134.781 809.222 131.559 805.82C128.336 802.598 124.845 798.927 121.085 794.81C117.504 790.871 113.744 786.663 109.806 782.188C106.046 777.712 102.555 773.415 99.332 769.297C95.9303 765.179 92.9762 761.419 90.4697 758.018C87.9632 754.616 86.2624 752.02 85.3672 750.229C95.2142 751.662 107.031 752.02 120.816 751.304C134.781 750.588 149.462 748.618 164.859 745.396C180.257 742.173 195.743 737.607 211.319 731.699C227.075 725.612 241.756 718.003 255.362 708.872C268.969 699.741 280.965 688.91 291.349 676.377C301.733 663.665 309.252 648.984 313.907 632.334C303.523 632.513 294.124 633.05 285.709 633.945C277.294 634.661 269.148 635.557 261.271 636.631C253.393 637.526 245.336 638.332 237.101 639.048C228.865 639.764 219.734 640.122 209.708 640.122C206.485 640.122 202.994 640.122 199.234 640.122C195.475 639.943 191.715 639.674 187.955 639.316C184.195 638.779 180.615 637.974 177.213 636.899C173.811 635.825 171.036 634.303 168.888 632.334C164.054 628.216 159.399 623.919 154.923 619.443C150.447 614.788 146.419 610.133 142.838 605.479C139.257 600.645 136.393 595.811 134.244 590.977C132.096 586.143 131.021 581.488 131.021 577.012C131.021 563.405 134.423 548.276 141.227 531.626C148.03 514.797 157.429 497.878 169.425 480.869C181.599 463.861 195.922 447.389 212.394 431.455C228.865 415.342 246.769 401.019 266.104 388.486C285.619 375.954 306.119 365.928 327.604 358.408C349.088 350.889 370.841 347.129 392.862 347.129C400.561 347.129 407.543 348.293 413.81 350.62C420.255 352.948 426.074 355.991 431.266 359.751C436.458 363.511 441.113 367.718 445.23 372.373C449.348 376.849 453.019 381.235 456.241 385.532C459.464 389.829 462.239 393.857 464.566 397.617C466.894 401.198 468.863 403.973 470.475 405.942ZM438.785 737.607C438.785 742.979 440.755 745.664 444.693 745.664C448.811 745.664 454.272 742.441 461.075 735.996C467.879 729.372 474.951 721.047 482.291 711.021C481.933 709.051 481.664 707.35 481.485 705.918C481.485 704.307 481.485 702.874 481.485 701.621C481.485 698.04 481.843 693.833 482.56 688.999C483.455 683.986 485.514 678.346 488.736 672.08C490.885 667.246 493.481 662.502 496.524 657.847C499.031 653.729 502.075 649.342 505.655 644.688C509.236 639.854 513.175 635.378 517.472 631.26L519.083 629.648C520.873 631.797 523.201 634.751 526.065 638.511C529.109 642.091 532.063 645.851 534.928 649.79C537.971 653.55 540.567 657.041 542.716 660.264C545.043 663.486 546.476 665.724 547.013 666.978C547.013 674.676 545.58 682.375 542.716 690.073C540.03 697.772 536.36 705.381 531.705 712.9C542.447 712.184 552.384 709.499 561.515 704.844C570.825 700.01 580.493 692.222 590.519 681.479C592.13 683.091 594.189 685.329 596.695 688.193C599.381 690.879 601.529 693.206 603.141 695.176C595.621 703.053 588.191 709.588 580.851 714.78C573.689 719.972 566.438 724.09 559.098 727.134C551.936 730.177 544.596 732.415 537.076 733.848C529.557 735.101 521.858 735.728 513.98 735.728C507.893 742.173 501.358 748.081 494.376 753.452C487.394 758.823 480.232 763.478 472.892 767.417C465.73 771.356 458.569 774.399 451.407 776.548C444.246 778.696 437.442 779.771 430.997 779.771C425.626 779.771 420.076 778.159 414.347 774.937C408.618 771.714 403.425 767.775 398.771 763.12C394.116 758.286 390.266 753.184 387.223 747.812C384.179 742.441 382.657 737.697 382.657 733.579C382.657 719.972 384.537 706.455 388.297 693.027C391.878 679.6 397.607 667.067 405.484 655.43C413.183 643.613 423.03 633.229 435.025 624.277C447.2 615.326 461.612 608.522 478.263 603.867C478.8 603.509 479.695 603.241 480.948 603.062C482.381 602.882 483.544 602.793 484.439 602.793C486.946 602.793 489.542 603.778 492.228 605.747C495.092 607.537 497.688 609.596 500.016 611.924C502.522 614.251 504.581 616.579 506.192 618.906C507.804 621.055 508.609 622.487 508.609 623.203C508.251 624.098 506.909 625.262 504.581 626.694C502.254 627.948 499.12 630.186 495.182 633.408C491.243 636.631 486.588 641.286 481.217 647.373C475.846 653.281 469.938 661.159 463.492 671.006C453.824 685.508 447.289 698.667 443.888 710.483C440.486 722.121 438.785 731.162 438.785 737.607ZM708.414 653.818C706.087 660.801 703.132 668.768 699.552 677.72C696.15 686.672 692.838 695.444 689.615 704.038C686.393 712.632 683.618 720.42 681.29 727.402C679.142 734.385 678.067 739.398 678.067 742.441C678.067 743.516 678.604 744.053 679.679 744.053C681.648 744.053 684.602 742.889 688.541 740.562C692.48 738.234 696.956 735.19 701.969 731.431C707.161 727.671 712.532 723.553 718.082 719.077C723.632 714.601 728.914 710.215 733.927 705.918C739.119 701.442 743.774 697.414 747.892 693.833C752.009 690.252 755.143 687.567 757.291 685.776C758.902 687.388 760.782 689.447 762.931 691.953C765.258 694.46 767.407 696.787 769.376 698.936C765.437 702.874 760.514 707.708 754.605 713.438C748.697 718.988 742.252 724.717 735.27 730.625C728.466 736.533 721.305 742.441 713.785 748.35C706.445 754.258 699.194 759.539 692.032 764.194C685.05 768.849 678.515 772.609 672.428 775.474C666.34 778.338 661.238 779.771 657.12 779.771C654.435 779.771 651.033 778.786 646.915 776.816C642.797 775.026 638.858 772.699 635.099 769.834C631.339 767.148 628.116 764.105 625.431 760.703C622.745 757.301 621.402 753.989 621.402 750.767C624.088 738.771 626.773 728.298 629.459 719.346C632.145 710.394 634.651 702.785 636.979 696.519C639.306 690.073 641.365 684.881 643.155 680.942C644.946 677.004 646.288 674.049 647.184 672.08C645.035 671.185 642.976 670.2 641.007 669.126C639.037 668.052 637.068 666.978 635.099 665.903C632.234 668.947 629.011 672.17 625.431 675.571C622.029 678.973 618.538 682.375 614.957 685.776C611.376 689.178 607.796 692.49 604.215 695.713C600.634 698.936 597.411 701.89 594.547 704.575L581.656 691.416C586.311 686.94 591.951 681.569 598.575 675.303C605.021 668.857 611.376 662.412 617.643 655.967C613.167 653.281 609.138 650.775 605.558 648.447C601.977 645.941 598.933 643.703 596.427 641.733C593.383 639.585 590.698 637.616 588.37 635.825C587.296 635.288 586.759 634.124 586.759 632.334C586.759 630.365 587.564 627.59 589.176 624.009C590.608 620.249 592.488 616.31 594.815 612.192C597.143 607.896 599.649 603.599 602.335 599.302C605.021 594.826 607.617 590.798 610.123 587.217C612.63 583.636 614.778 580.771 616.568 578.623C618.538 576.296 619.791 575.132 620.328 575.132C620.686 575.132 621.85 575.579 623.819 576.475C625.968 577.37 628.206 578.444 630.533 579.697C632.861 580.771 635.009 582.025 636.979 583.457C638.948 584.889 640.201 586.143 640.738 587.217C640.917 588.112 641.096 589.992 641.275 592.856C641.454 595.721 641.633 599.212 641.812 603.33C648.795 606.911 655.956 611.029 663.297 615.684C670.637 620.16 677.351 624.456 683.438 628.574C690.6 633.229 697.403 637.974 703.849 642.808C706.176 644.24 707.608 646.03 708.146 648.179C708.862 650.327 708.951 652.207 708.414 653.818ZM881.363 735.728C879.931 735.728 878.588 735.728 877.335 735.728C876.261 735.728 875.097 735.549 873.844 735.19C867.936 741.457 861.58 747.365 854.776 752.915C848.152 758.286 841.438 762.941 834.635 766.88C827.831 770.998 821.118 774.131 814.493 776.279C808.048 778.607 801.871 779.771 795.963 779.771C790.413 779.771 784.594 777.801 778.507 773.862C772.599 769.924 767.138 765.269 762.125 759.897C757.112 754.347 752.994 748.708 749.771 742.979C746.549 737.249 744.938 732.684 744.938 729.282C744.938 720.868 745.922 709.588 747.892 695.444C749.861 681.121 753.352 664.919 758.365 646.836C763.378 628.574 770.182 608.88 778.775 587.754C787.548 566.628 798.648 545.054 812.076 523.032C829.801 494.028 846.809 470.396 863.102 452.134C879.573 433.872 894.522 419.549 907.95 409.165C921.557 398.602 933.463 391.172 943.668 386.875C953.873 382.399 961.661 379.535 967.032 378.281C970.971 378.281 975.268 379.355 979.923 381.504C984.757 383.473 989.322 386.248 993.619 389.829C998.095 393.231 1002.12 397.17 1005.7 401.646C1009.28 405.942 1011.79 410.418 1013.22 415.073C1011.08 427.606 1006.87 440.317 1000.6 453.208C994.514 465.92 986.905 478.81 977.774 491.88C968.823 504.771 958.528 517.84 946.891 531.089C935.253 544.338 922.721 557.676 909.293 571.104C895.865 584.352 881.811 597.601 867.13 610.85C852.628 624.098 837.857 637.347 822.818 650.596C820.133 659.548 817.716 668.141 815.567 676.377C813.419 684.613 811.539 692.222 809.928 699.204C808.495 706.187 807.332 712.363 806.437 717.734C805.72 722.926 805.362 727.134 805.362 730.356C805.362 735.369 805.72 738.771 806.437 740.562C807.153 742.173 808.674 742.979 811.002 742.979C813.329 742.979 816.015 742.083 819.059 740.293C822.281 738.324 825.593 735.728 828.995 732.505C832.397 729.282 835.888 725.612 839.469 721.494C843.049 717.197 846.451 712.721 849.674 708.066C849.495 706.813 849.405 705.649 849.405 704.575C849.405 703.501 849.405 702.516 849.405 701.621C849.405 694.818 850.479 688.104 852.628 681.479C854.776 674.855 857.551 668.589 860.953 662.681C864.355 656.772 868.115 651.222 872.232 646.03C876.529 640.838 880.826 636.183 885.123 632.065C887.271 633.677 889.42 635.825 891.568 638.511C893.896 641.196 896.134 644.329 898.282 647.91C900.61 651.312 902.758 654.893 904.728 658.652C906.876 662.412 908.935 666.172 910.904 669.932C910.009 676.735 907.861 683.807 904.459 691.147C901.236 698.488 897.029 705.828 891.837 713.169H892.911C898.998 713.169 904.817 712.721 910.367 711.826C915.917 710.752 921.288 709.051 926.48 706.724C931.852 704.217 937.133 700.994 942.325 697.056C947.517 692.938 952.799 687.925 958.17 682.017C959.96 683.628 962.109 685.866 964.615 688.73C967.122 691.416 969.27 693.743 971.061 695.713C963.541 703.59 956.111 710.125 948.771 715.317C941.43 720.33 934.09 724.359 926.749 727.402C919.409 730.446 911.979 732.594 904.459 733.848C897.118 735.101 889.42 735.728 881.363 735.728ZM866.861 538.34C862.206 546.934 857.641 556.333 853.165 566.538C848.689 576.743 844.392 587.485 840.274 598.765C859.789 579.787 877.962 561.077 894.791 542.637C911.62 524.017 926.122 506.65 938.297 490.537C950.471 474.424 960.05 459.922 967.032 447.031C974.015 433.962 977.506 423.309 977.506 415.073C977.506 412.567 976.611 411.313 974.82 411.313C972.135 411.313 967.569 413.283 961.124 417.222C954.679 420.981 946.712 427.695 937.223 437.363C927.913 446.852 917.26 459.832 905.265 476.304C893.448 492.596 880.647 513.275 866.861 538.34ZM1141.06 698.936C1124.58 715.049 1109.01 728.566 1094.33 739.487C1079.83 750.409 1065.95 759.181 1052.7 765.806C1039.45 772.43 1026.74 777.174 1014.57 780.039C1002.57 782.904 990.844 784.336 979.386 784.336C974.552 784.336 969.181 782.546 963.272 778.965C957.364 775.384 951.904 770.998 946.891 765.806C941.699 760.793 937.402 755.511 934 749.961C930.598 744.411 928.897 739.666 928.897 735.728C928.897 721.047 930.956 707.619 935.074 695.444C939.013 683.091 944.295 671.991 950.919 662.144C957.543 652.297 965.063 643.613 973.478 636.094C982.071 628.574 990.934 622.308 1000.06 617.295C1009.37 612.282 1018.59 608.522 1027.73 606.016C1036.86 603.509 1045.27 602.256 1052.97 602.256C1058.52 602.256 1063.98 603.867 1069.35 607.09C1074.9 610.312 1079.91 614.251 1084.39 618.906C1088.87 623.561 1092.45 628.485 1095.13 633.677C1098 638.69 1099.43 643.076 1099.43 646.836C1099.43 652.923 1096.83 659.189 1091.64 665.635C1086.63 671.901 1079.47 678.346 1070.16 684.971C1060.85 691.595 1049.66 698.398 1036.59 705.381C1023.52 712.184 1009.11 719.077 993.351 726.06C992.813 730.356 992.545 734.564 992.545 738.682C992.545 744.232 993.709 747.992 996.036 749.961C998.543 751.93 1003.11 752.915 1009.73 752.915C1021.55 752.915 1032.65 750.946 1043.03 747.007C1053.6 743.068 1063.71 737.965 1073.38 731.699C1083.05 725.433 1092.36 718.271 1101.31 710.215C1110.26 702.158 1119.12 694.012 1127.9 685.776L1141.06 698.936ZM1046.52 631.797C1042.94 631.797 1039 633.766 1034.71 637.705C1030.41 641.465 1026.11 646.478 1021.82 652.744C1017.52 659.01 1013.4 666.261 1009.46 674.497C1005.53 682.554 1002.12 690.968 999.259 699.741C1005.88 695.444 1012.33 690.879 1018.59 686.045C1025.04 681.211 1030.77 676.198 1035.78 671.006C1040.8 665.635 1044.82 660.174 1047.87 654.624C1050.91 649.074 1052.43 643.524 1052.43 637.974C1052.43 636.362 1051.9 634.93 1050.82 633.677C1049.93 632.424 1048.49 631.797 1046.52 631.797ZM1154.48 779.771C1151.44 779.771 1147.41 778.338 1142.4 775.474C1137.56 772.788 1132.82 769.386 1128.17 765.269C1123.51 761.33 1119.48 757.212 1116.08 752.915C1112.68 748.618 1110.98 744.948 1110.98 741.904C1110.98 736.533 1112.5 728.029 1115.54 716.392C1118.41 704.754 1122.26 691.506 1127.09 676.646C1131.92 661.606 1137.39 645.583 1143.47 628.574C1149.74 611.566 1156.01 594.915 1162.27 578.623H1124.41H1124.14C1123.96 578.623 1123.87 578.444 1123.87 578.086C1123.87 577.012 1124.32 575.49 1125.21 573.521C1125.93 571.372 1126.91 569.224 1128.17 567.075C1129.24 564.748 1130.58 562.689 1132.19 560.898C1133.63 558.929 1135.06 557.676 1136.49 557.139L1171.4 555.527C1176.42 543.353 1181.16 532.163 1185.64 521.958C1190.29 511.574 1194.41 502.712 1197.99 495.371C1198.88 493.402 1199.78 491.343 1200.67 489.194C1201.75 486.867 1203.18 484.629 1204.97 482.48C1206.94 480.153 1209.45 477.826 1212.49 475.498C1215.71 472.992 1220.01 470.485 1225.38 467.979C1229.32 466.009 1234.07 463.861 1239.62 461.533C1245.34 459.206 1250.89 457.057 1256.27 455.088C1261.82 453.118 1266.83 451.507 1271.3 450.254C1275.78 448.822 1279 448.105 1280.97 448.105C1282.76 448.105 1283.66 448.464 1283.66 449.18V449.717C1283.66 449.896 1283.48 450.343 1283.12 451.06C1282.05 452.85 1280.08 456.789 1277.21 462.876C1274.35 468.784 1270.77 476.304 1266.47 485.435C1262.35 494.386 1257.7 504.681 1252.51 516.318C1247.49 527.777 1242.3 539.951 1236.93 552.842L1301.38 550.425C1303.17 550.425 1303.71 551.499 1302.99 553.647C1302.28 555.796 1300.94 558.302 1298.97 561.167C1297 564.032 1294.67 566.986 1291.98 570.029C1289.48 573.073 1287.33 575.4 1285.54 577.012C1285.18 577.37 1284.46 577.728 1283.39 578.086C1282.32 578.444 1280.97 578.623 1279.36 578.623H1226.19C1219.74 594.199 1213.57 609.954 1207.66 625.889C1201.75 641.823 1196.47 656.951 1191.81 671.274C1187.16 685.597 1183.4 698.757 1180.53 710.752C1177.85 722.747 1176.5 732.594 1176.5 740.293C1176.5 741.367 1177.04 741.904 1178.12 741.904C1180.09 741.904 1183.04 740.83 1186.98 738.682C1190.92 736.354 1195.3 733.4 1200.14 729.819C1205.15 726.239 1210.43 722.3 1215.98 718.003C1221.53 713.706 1226.81 709.499 1231.83 705.381C1236.84 701.084 1241.32 697.235 1245.25 693.833C1249.37 690.252 1252.51 687.567 1254.65 685.776C1256.27 687.388 1258.15 689.447 1260.29 691.953C1262.62 694.46 1264.77 696.787 1266.74 698.936C1262.8 702.874 1257.88 707.708 1251.97 713.438C1246.06 718.988 1239.62 724.717 1232.63 730.625C1225.83 736.533 1218.67 742.441 1211.15 748.35C1203.81 754.258 1196.56 759.539 1189.4 764.194C1182.41 768.849 1175.88 772.609 1169.79 775.474C1163.7 778.338 1158.6 779.771 1154.48 779.771ZM1440.76 698.936C1424.29 715.049 1408.72 728.566 1394.03 739.487C1379.53 750.409 1365.66 759.181 1352.41 765.806C1339.16 772.43 1326.45 777.174 1314.27 780.039C1302.28 782.904 1290.55 784.336 1279.09 784.336C1274.26 784.336 1268.89 782.546 1262.98 778.965C1257.07 775.384 1251.61 770.998 1246.6 765.806C1241.41 760.793 1237.11 755.511 1233.71 749.961C1230.31 744.411 1228.6 739.666 1228.6 735.728C1228.6 721.047 1230.66 707.619 1234.78 695.444C1238.72 683.091 1244 671.991 1250.63 662.144C1257.25 652.297 1264.77 643.613 1273.18 636.094C1281.78 628.574 1290.64 622.308 1299.77 617.295C1309.08 612.282 1318.3 608.522 1327.43 606.016C1336.56 603.509 1344.98 602.256 1352.68 602.256C1358.23 602.256 1363.69 603.867 1369.06 607.09C1374.61 610.312 1379.62 614.251 1384.1 618.906C1388.57 623.561 1392.15 628.485 1394.84 633.677C1397.7 638.69 1399.14 643.076 1399.14 646.836C1399.14 652.923 1396.54 659.189 1391.35 665.635C1386.34 671.901 1379.17 678.346 1369.86 684.971C1360.55 691.595 1349.36 698.398 1336.29 705.381C1323.23 712.184 1308.81 719.077 1293.06 726.06C1292.52 730.356 1292.25 734.564 1292.25 738.682C1292.25 744.232 1293.42 747.992 1295.74 749.961C1298.25 751.93 1302.82 752.915 1309.44 752.915C1321.26 752.915 1332.36 750.946 1342.74 747.007C1353.3 743.068 1363.42 737.965 1373.09 731.699C1382.75 725.433 1392.06 718.271 1401.02 710.215C1409.97 702.158 1418.83 694.012 1427.6 685.776L1440.76 698.936ZM1346.23 631.797C1342.65 631.797 1338.71 633.766 1334.42 637.705C1330.12 641.465 1325.82 646.478 1321.52 652.744C1317.23 659.01 1313.11 666.261 1309.17 674.497C1305.23 682.554 1301.83 690.968 1298.97 699.741C1305.59 695.444 1312.04 690.879 1318.3 686.045C1324.75 681.211 1330.48 676.198 1335.49 671.006C1340.5 665.635 1344.53 660.174 1347.57 654.624C1350.62 649.074 1352.14 643.524 1352.14 637.974C1352.14 636.362 1351.6 634.93 1350.53 633.677C1349.63 632.424 1348.2 631.797 1346.23 631.797ZM1422.77 690.879C1426.89 686.94 1431.63 682.464 1437 677.451C1442.19 672.438 1447.39 666.978 1452.58 661.069C1457.95 655.161 1462.87 648.805 1467.35 642.002C1472 635.199 1475.67 627.858 1478.36 619.98C1479.08 615.863 1480.15 611.566 1481.58 607.09C1483.19 602.435 1484.9 598.228 1486.69 594.468C1488.65 590.708 1490.53 587.575 1492.33 585.068C1494.12 582.562 1495.73 581.309 1497.16 581.309C1499.31 582.562 1502.53 584.979 1506.83 588.56C1511.12 591.961 1515.42 595.632 1519.72 599.57C1524.01 603.509 1527.77 607.179 1531 610.581C1534.4 613.804 1536.1 615.773 1536.1 616.489C1533.95 624.725 1532.88 632.155 1532.88 638.779C1533.06 645.404 1533.59 651.938 1534.49 658.384C1535.56 664.829 1536.64 671.722 1537.71 679.062C1538.96 686.224 1539.59 694.549 1539.59 704.038C1539.59 709.767 1538.61 716.392 1536.64 723.911C1534.85 731.252 1531.62 737.876 1526.97 743.784C1536.1 738.413 1545.14 732.415 1554.09 725.791C1563.04 718.988 1571.01 712.632 1577.99 706.724C1586.23 699.741 1594.11 692.759 1601.63 685.776L1613.71 698.936C1607.8 704.486 1601.36 710.394 1594.38 716.66C1587.57 722.926 1580.41 729.103 1572.89 735.19C1565.55 741.278 1558.03 747.096 1550.33 752.646C1542.63 758.197 1535.03 763.12 1527.51 767.417C1519.99 771.714 1512.74 775.116 1505.75 777.622C1498.77 780.129 1492.24 781.382 1486.15 781.382C1480.96 781.382 1475.23 780.129 1468.96 777.622C1462.69 775.116 1456.79 772.072 1451.24 768.491C1445.69 764.91 1440.85 761.151 1436.73 757.212C1432.62 753.273 1430.2 749.961 1429.48 747.275C1429.48 746.917 1429.84 746.201 1430.56 745.127C1431.27 743.874 1432.17 742.62 1433.24 741.367C1434.14 740.114 1435.12 739.04 1436.2 738.145C1437.09 737.07 1437.81 736.533 1438.35 736.533C1439.42 736.533 1441.57 737.339 1444.79 738.95C1448.01 740.562 1453.38 741.367 1460.9 741.367C1465.02 741.367 1468.51 740.293 1471.38 738.145C1474.42 735.996 1476.93 733.132 1478.9 729.551C1480.87 725.97 1482.3 721.852 1483.19 717.197C1484.09 712.542 1484.54 707.619 1484.54 702.427C1484.54 694.907 1484.18 687.656 1483.46 680.674C1482.75 673.512 1481.94 666.619 1481.05 659.995C1478 663.576 1474.51 667.336 1470.57 671.274C1466.63 675.213 1462.61 679.152 1458.49 683.091C1454.55 686.851 1450.52 690.61 1446.4 694.37C1442.46 697.951 1438.88 701.174 1435.66 704.038L1422.77 690.879Z" fill="url(#paint1_linear_30_47)" style="mix-blend-mode:darken"/>
<g clip-path="url(#clip0_30_47)">
<path d="M413.275 946.616C406.988 947.771 394.099 952.228 388.127 955.529C382.468 958.5 373.509 966.752 371.309 971.044C370.209 973.024 368.794 973.024 360.621 970.713C347.261 966.917 324.156 967.412 309.382 971.539C268.359 983.422 240.539 1020.06 240.382 1062.32C240.382 1071.72 239.754 1073.54 235.196 1079.65C232.209 1083.44 227.337 1091.53 224.036 1097.64C220.421 1104.73 217.278 1108.86 215.549 1108.86C209.419 1108.86 185.528 1123.22 177.512 1131.8C163.052 1147.15 155.979 1163.66 157.865 1177.69C159.28 1187.75 163.995 1199.31 169.182 1204.92C171.697 1207.56 172.64 1210.04 172.011 1211.52C169.182 1216.47 156.137 1234.13 155.193 1234.3C154.565 1234.3 150.007 1236.77 144.977 1239.91C127.688 1250.64 113.385 1268.3 110.084 1283.48C105.683 1302.63 116.528 1324.58 136.804 1337.62C145.92 1343.4 148.906 1344.55 158.023 1346.04C161.638 1346.7 163.838 1348.35 165.881 1352.31C168.553 1357.59 168.553 1357.92 164.31 1367.16C159.909 1376.9 157.08 1389.28 157.08 1398.52C157.08 1407.27 161.638 1420.48 166.824 1426.75C174.683 1436.16 197.631 1446.72 212.562 1447.71C226.551 1448.86 253.742 1446.06 259.243 1443.09C264.116 1440.45 264.744 1440.61 277.79 1445.23C285.334 1448.04 294.293 1451.01 297.751 1452C306.553 1454.31 343.332 1458.77 362.822 1459.59L379.011 1460.42L390.013 1471.31C409.502 1490.62 430.407 1504.82 448.796 1511.75C455.24 1514.06 463.728 1515.38 476.93 1516.04C513.552 1517.86 532.728 1508.12 553.789 1477.42C561.176 1466.53 564.948 1455.3 567.306 1435.99C568.563 1427.24 570.135 1420.81 571.078 1420.81C578.151 1420.81 612.101 1415.36 619.174 1413.21C660.511 1400.51 685.816 1387.8 708.606 1368.16C727.153 1352.31 755.287 1313.52 769.433 1284.64C782.164 1258.56 783.421 1252.29 783.421 1216.97C783.421 1180.16 782.007 1173.4 769.904 1147.32C756.859 1119.42 748.372 1107.87 729.039 1091.53C704.205 1070.4 672.456 1053.07 641.964 1044C613.673 1035.41 603.771 1033.93 575.165 1033.76C553.003 1033.76 547.188 1034.26 535.242 1037.56C527.541 1039.7 518.582 1042.84 515.281 1044.66C511.98 1046.31 508.994 1047.79 508.523 1047.79C508.208 1047.79 507.108 1043.83 506.008 1039.21C503.965 1028.98 497.52 1014.62 493.277 1010.49C491.705 1009.01 490.29 1005.7 490.29 1003.23C490.29 996.791 485.732 982.102 481.803 975.335C476.616 966.752 465.928 957.179 456.655 952.723C444.71 947.111 426.006 944.305 413.275 946.616ZM444.867 963.616C454.926 969.063 461.056 974.345 465.771 981.772C467.971 985.403 469.858 988.539 469.858 989.034C469.858 989.364 465.3 989.694 459.641 989.694C453.983 989.694 447.067 990.354 444.395 990.85C433.707 993.325 411.703 1008.18 411.703 1012.8C411.703 1013.63 410.445 1015.44 408.874 1016.93C406.359 1019.4 405.887 1018.74 402.272 1008.84C399.915 1002.07 395.514 994.811 390.799 989.034L382.94 979.956L386.398 976.16C390.956 971.209 404.001 963.781 413.117 960.975C422.862 958.005 436.379 959.16 444.867 963.616ZM362.979 983.587C372.095 987.714 381.525 998.442 387.498 1011.65C393.313 1024.19 392.056 1025.84 382.311 1018.91C368.165 1009.01 359.364 1006.03 342.546 1006.03C325.571 1005.87 320.856 1007.52 308.125 1018.08C296.965 1027.33 290.05 1039.21 284.391 1058.52C279.99 1073.37 279.362 1077.67 278.733 1101.43C278.104 1129.66 279.833 1144.02 285.963 1161.18C289.735 1171.91 289.735 1171.58 286.12 1171.58C283.134 1171.58 274.961 1177.52 274.961 1179.83C274.961 1180.49 285.806 1180.99 299.009 1180.82C312.054 1180.82 327.614 1181.32 333.43 1182.14L343.803 1183.46L347.733 1177.19C352.448 1169.43 353.077 1168.77 375.71 1146.66C417.047 1106.22 458.855 1077.34 491.862 1066.28C522.197 1056.21 534.456 1052.58 547.188 1050.27C578.465 1044.49 610.686 1048.95 655.324 1065.45C675.914 1073.04 696.189 1084.93 710.807 1097.97C718.508 1104.73 733.125 1125.86 741.927 1143.03C758.273 1174.88 764.56 1209.71 759.688 1242.55C758.273 1252.12 756.23 1261.04 754.973 1262.52C753.715 1263.84 752.772 1265.49 752.772 1266.15C752.772 1267.8 737.369 1300.81 733.597 1307.09C715.993 1336.63 695.246 1360.07 671.984 1376.74C660.196 1385.16 640.235 1392.75 618.388 1396.87C611.472 1398.19 598.112 1400.84 588.525 1402.65C566.206 1407.11 531.47 1407.44 512.766 1403.48C485.575 1397.86 469.543 1392.91 454.612 1385.98C444.552 1381.19 417.676 1363.2 409.188 1355.12L404.316 1350.66L405.416 1337.46C406.516 1324.58 406.359 1323.92 401.015 1312.2C395.985 1300.98 391.427 1295.7 384.669 1293.22C381.211 1291.9 381.211 1292.56 384.04 1298.5C390.799 1312.04 392.37 1342.9 387.498 1362.38C384.826 1373.11 377.753 1390.27 372.252 1398.85L368.951 1404.3H373.667C379.482 1404.3 391.427 1394.89 394.885 1387.47C396.457 1383.83 397.557 1382.84 398.029 1384.5C404.001 1405.13 417.676 1434.51 426.792 1446.39C435.751 1457.94 449.896 1468.34 461.842 1472.47C476.773 1477.42 503.493 1475.27 517.324 1467.68C526.755 1462.56 532.885 1451.18 536.185 1432.85C537.6 1424.93 538.543 1422.62 540.272 1423.28C541.372 1423.78 544.359 1424.11 546.873 1424.11H551.431L549.231 1431.04C548.131 1435 546.245 1441.77 545.144 1446.22C542.944 1455.14 530.056 1478.74 524.554 1483.86C522.511 1485.84 516.381 1489.63 510.723 1492.44C501.135 1497.22 499.406 1497.55 483.217 1497.55C464.985 1497.55 452.883 1494.58 438.265 1486.66C428.835 1481.71 408.245 1464.87 396.771 1452.83L386.869 1442.43L365.965 1441.6C321.013 1439.62 283.134 1430.38 256.257 1414.86C228.594 1398.85 192.601 1363.53 180.97 1340.76C171.383 1321.94 168.082 1308.24 168.239 1287.12C168.396 1253.28 174.998 1232.81 191.658 1214.49C201.089 1204.09 218.692 1191.39 223.407 1191.39C229.537 1191.39 232.209 1188.58 231.58 1182.8C229.852 1167.45 229.694 1159.2 231.109 1142.04C232.366 1126.03 233.467 1121.24 238.025 1110.51C241.011 1103.41 243.526 1096.65 243.526 1095.33C243.526 1093.84 245.098 1090.71 246.984 1088.23C253.271 1079.65 255.943 1072.38 256.257 1061.82C256.414 1056.21 256.257 1050.93 255.628 1050.1C254.214 1047.63 261.444 1027.33 266.945 1018.41C278.261 999.927 302.624 983.257 322.899 980.451C337.831 978.306 354.02 979.461 362.979 983.587ZM465.3 1007.85C470.958 1010.16 478.502 1017.26 482.274 1023.69C486.204 1030.3 492.648 1056.04 490.762 1057.53C490.133 1058.19 486.675 1059.68 483.217 1060.83C474.259 1063.97 461.685 1070.24 452.411 1075.85C442.981 1081.79 442.038 1081.96 442.038 1076.84C442.038 1064.13 433.865 1054.39 423.491 1054.39C417.676 1054.39 406.988 1059.84 406.988 1062.81C406.988 1063.64 406.359 1064.3 405.573 1064.3C403.058 1064.3 402.587 1055.71 404.787 1051.26C405.887 1048.95 408.559 1042.84 410.603 1037.89C415.318 1026.83 425.691 1014.12 433.865 1009.67C445.338 1003.56 453.826 1003.06 465.3 1007.85ZM358.263 1026.5C367.38 1031.29 374.452 1036.73 381.84 1044.33C391.899 1054.89 392.37 1055.71 396.457 1070.9C398.657 1079.48 401.172 1091.7 402.115 1097.8L403.687 1109.03L398.657 1113.81C395.828 1116.62 391.742 1119.59 389.384 1120.74C387.026 1121.9 384.826 1123.72 384.669 1124.71C384.354 1125.7 379.325 1130.98 373.195 1136.59L362.193 1146.66L359.835 1134.77C356.063 1116.78 349.304 1104.24 340.031 1097.64C331.387 1091.7 327.3 1091.2 319.598 1095C310.954 1099.29 305.924 1112 305.767 1130.81C305.61 1144.35 306.081 1146.99 310.011 1154.74C312.368 1159.53 315.669 1164.81 317.398 1166.63C320.384 1169.76 320.227 1169.76 313.469 1169.43L306.396 1169.1L302.624 1156.73C296.651 1137.58 294.765 1119.59 295.865 1094.01C297.28 1063.8 300.895 1051.59 312.997 1035.58C319.756 1026.5 322.27 1024.35 329.186 1021.71C338.302 1018.41 344.746 1019.4 358.263 1026.5ZM336.102 1112.99C339.402 1122.89 337.516 1130.98 331.387 1133.78C324.471 1136.75 321.485 1134.28 320.856 1124.87C320.541 1120.74 321.485 1114.64 322.742 1111.34C324.785 1106.22 325.885 1105.39 329.5 1105.89C333.115 1106.22 334.373 1107.71 336.102 1112.99ZM212.877 1144.68C212.877 1154.58 213.348 1165.97 213.977 1170.26L215.077 1178.02L206.904 1182.14C202.503 1184.45 196.688 1187.75 194.016 1189.74C191.501 1191.55 188.829 1193.04 188.357 1193.04C187.886 1193.04 186 1190.23 184.114 1186.76C181.127 1180.99 180.97 1179.83 182.856 1170.42C183.799 1164.98 187.257 1156.23 190.243 1150.95C195.273 1142.2 208.79 1127.02 211.619 1127.02C212.248 1127.02 212.877 1134.94 212.877 1144.68ZM146.549 1261.04C144.348 1270.45 145.606 1300.15 148.749 1313.03C150.478 1319.63 151.421 1325.08 151.107 1325.08C149.064 1325.08 133.032 1309.23 131.146 1305.27C126.43 1295.53 129.888 1279.85 140.262 1263.68C146.077 1254.44 148.435 1253.61 146.549 1261.04ZM197.159 1388.79C205.647 1398.36 218.221 1410.9 225.136 1416.35C237.082 1426.09 237.396 1426.58 233.152 1427.08C226.551 1427.9 205.961 1424.27 198.574 1420.97C187.257 1415.69 181.127 1408.59 179.084 1398.19C177.198 1388.95 178.141 1371.29 180.499 1371.29C181.127 1371.29 188.672 1379.21 197.159 1388.79ZM450.211 1409.09C477.559 1423.12 492.648 1438.14 494.534 1453.82C495.32 1460.09 495.32 1460.09 489.033 1461.24C472.372 1464.21 447.224 1452.83 435.436 1436.82C428.678 1427.74 415.789 1400.51 417.518 1398.85C419.09 1397.04 438.423 1403.15 450.211 1409.09Z" fill="url(#paint2_linear_30_47)"/>
</g>
<defs>
<linearGradient id="paint0_linear_30_47" x1="1346.5" y1="869" x2="1346.5" y2="1691" gradientUnits="userSpaceOnUse">
<stop stop-color="#0057FF"/>
<stop offset="0.286458" stop-color="#0073FF"/>
<stop offset="1" stop-color="white" stop-opacity="0.9"/>
</linearGradient>
<linearGradient id="paint1_linear_30_47" x1="926" y1="228" x2="926" y2="1050" gradientUnits="userSpaceOnUse">
<stop stop-color="#0057FF"/>
<stop offset="0.286458" stop-color="#0073FF"/>
<stop offset="1" stop-color="white" stop-opacity="0.9"/>
</linearGradient>
<linearGradient id="paint2_linear_30_47" x1="446.267" y1="1516.25" x2="446.267" y2="945.805" gradientUnits="userSpaceOnUse">
<stop stop-color="#AAF0FF"/>
<stop offset="1" stop-color="#075CFF"/>
</linearGradient>
<clipPath id="clip0_30_47">
<rect width="701" height="817" fill="white" transform="translate(82 874)"/>
</clipPath>
</defs>
</svg>
